<svg xmlns="http://www.w3.org/2000/svg" width="272" height="430" viewBox="0 0 71.967 113.771"><g style="stroke-width:4.33342838"><path style="fill:#339e46;stroke-width:4.33342838" d="M26.045 446.374c-3.114-.84-4.75-3.27-4.351-6.46.196-1.571 1.223-2.983 2.944-4.046l.906-.56-.535-.866c-.331-.536-.535-1.323-.535-2.067 0-.985.167-1.4.931-2.315l.931-1.114-1.083-1.175c-1.498-1.625-1.838-2.586-1.832-5.17.007-2.583.477-3.817 2.014-5.29 1.827-1.75 2.497-1.86 10.085-1.648l6.681.185v2.26l-1.588.185c-.873.101-1.646.279-1.718.394-.071.116.048.715.265 1.33.453 1.283.514 3.658.13 5.04-.348 1.253-1.91 3.04-3.269 3.74-.806.415-1.796.607-3.742.725-2.914.176-3.557.445-4.282 1.79-.457.85-.454.882.108 1.445.701.701 2.348.967 6.159.996 3.476.026 4.522.314 5.966 1.646.938.864 1.204 1.326 1.451 2.518.856 4.121-1.278 7.277-5.687 8.412-1.927.496-8.17.525-9.949.045zm9.41-3.2c2.317-1 3.38-2.79 2.668-4.495-.617-1.475-1.669-1.79-6.108-1.826-3.461-.029-3.779.011-4.829.609-1.52.864-2.357 2.52-1.93 3.814.655 1.984 2.21 2.597 6.23 2.456 1.972-.07 3.25-.25 3.968-.559zm-1.436-16.855c2.541-1.428 2.644-5.618.182-7.452-1.113-.83-3.558-.923-5.066-.192-2.973 1.439-3.025 6.21-.084 7.666 1.507.746 3.619.736 4.968-.022zm-151.64 10.85c-1.223-.327-3.306-1.912-4.404-3.352-1.357-1.78-1.8-3.613-1.8-7.455 0-4.41.45-5.821 2.583-8.101 2.083-2.227 3.44-2.747 7.17-2.747 3.411 0 4.758.433 6.606 2.122 2.657 2.428 3.505 4.963 3.285 9.817-.177 3.89-.616 5.104-2.632 7.259-2.114 2.26-3.458 2.773-7.166 2.735-1.486-.015-3.125-.14-3.642-.278zm6.939-3.569c3.919-2.82 3.926-11.476.011-14.227-.895-.629-1.473-.814-2.815-.899-2.965-.189-4.85.895-6.006 3.455-.553 1.223-.627 1.772-.615 4.566.011 2.68.101 3.36.58 4.365.771 1.621 1.316 2.231 2.713 3.039 1.035.598 1.44.677 3.089.607 1.631-.07 2.059-.198 3.043-.906zm31.442 3.384c-1.37-.735-2.335-2.09-2.643-3.715-.149-.782-.27-4.3-.27-7.816 0-4.62-.088-6.481-.318-6.71-.174-.175-.83-.318-1.455-.318-1.127 0-1.138-.01-1.138-.94 0-.887.085-.979 1.464-1.589.805-.356 1.513-.796 1.573-.977.06-.182.36-1.194.664-2.249l.555-1.918h2.359v2.196c0 1.355.122 2.318.318 2.514.205.205 1.275.317 3.042.317h2.725v2.646h-2.725c-1.767 0-2.837.111-3.042.317-.23.23-.318 2.113-.317 6.813 0 5.972.043 6.564.517 7.341.892 1.464 1.617 1.763 3.858 1.594l1.974-.15v1.294c0 1.68-.316 1.84-3.625 1.84-2.028 0-2.803-.107-3.516-.49zm16.123.185c-1.223-.327-3.306-1.912-4.404-3.352-1.357-1.78-1.8-3.613-1.8-7.455 0-4.41.45-5.821 2.583-8.101 2.083-2.227 3.44-2.747 7.17-2.747 3.411 0 4.758.433 6.606 2.122 2.657 2.428 3.505 4.963 3.285 9.817-.176 3.891-.616 5.104-2.631 7.259-2.115 2.26-3.46 2.773-7.167 2.735-1.486-.015-3.125-.14-3.642-.278zm6.94-3.545c3.913-2.751 3.92-11.503.01-14.25-.895-.63-1.473-.815-2.815-.9-2.965-.189-4.85.895-6.006 3.455-.553 1.223-.627 1.772-.615 4.566.011 2.68.102 3.36.58 4.365.772 1.621 1.316 2.231 2.713 3.039 1.036.598 1.44.677 3.093.606 1.614-.07 2.073-.202 3.039-.881zm62.754 3.3c-2.681-1.031-4.86-3.603-5.556-6.554-.766-3.255-.254-8.211 1.085-10.495.897-1.53 2.996-3.4 4.434-3.95.982-.374 1.815-.45 4.093-.372 2.558.088 2.994.176 4.122.837 1.608.943 3.245 3.008 3.76 4.746.228.764.403 2.37.403 3.687v2.333h-6.98c-8.044 0-7.83-.061-7.314 2.092.637 2.654 2.58 4.585 4.973 4.944 1.747.262 4.732-.044 6.518-.668.86-.301 1.663-.547 1.786-.547.372 0 .261 3.079-.123 3.397-1.392 1.156-8.694 1.514-11.201.55zm8.436-12.948c.332-.528-.14-2.285-.923-3.436-.964-1.417-1.874-1.936-3.61-2.062-2.17-.157-3.907.77-4.917 2.628-.949 1.743-1.221 2.745-.848 3.119.203.203 1.83.274 5.17.225 4.02-.06 4.919-.143 5.128-.474zm52.418 12.948c-2.681-1.031-4.86-3.603-5.555-6.554-.767-3.255-.254-8.211 1.084-10.495.897-1.53 2.996-3.4 4.434-3.95.983-.374 1.815-.45 4.094-.372 2.557.088 2.994.176 4.122.837 1.607.943 3.244 3.008 3.76 4.746.227.764.402 2.37.402 3.687v2.333h-6.98c-8.044 0-7.83-.061-7.314 2.092.637 2.654 2.58 4.585 4.974 4.944 1.747.262 4.732-.044 6.517-.668.86-.301 1.663-.547 1.786-.547.372 0 .261 3.079-.123 3.397-1.392 1.156-8.694 1.514-11.201.55zm8.436-12.948c.333-.528-.14-2.285-.923-3.436-.964-1.417-1.874-1.936-3.61-2.062-2.17-.157-3.906.77-4.917 2.628-.949 1.743-1.221 2.745-.848 3.119.204.203 1.83.274 5.17.225 4.02-.06 4.92-.143 5.128-.474zM-146.71 422.9v-14.308l6.151.105c6.973.12 7.792.292 9.819 2.077 1.8 1.584 2.391 3.041 2.406 5.927.017 3.405-.427 4.706-2.223 6.508-2.146 2.154-3.658 2.674-8.216 2.826-1.965.066-3.72.24-3.903.388-.244.198-.33 1.639-.33 5.527v5.26h-3.704zm7.755.036c4.28-.383 6.114-1.605 6.767-4.512.64-2.847-.88-5.395-3.686-6.177-2.077-.58-6.242-.847-6.74-.434-.322.268-.392 1.255-.392 5.532 0 5.318.096 5.854 1.045 5.832.225-.005 1.578-.114 3.006-.241zm40.134 3.558v-10.716h3.175l.004 1.124c.007 1.962.33 2.088 1.772.69 1.869-1.812 2.56-2.079 5.385-2.079h2.425l-.188 1.522c-.104.836-.223 1.557-.265 1.6-.042.045-1.022.104-2.177.133-1.809.045-2.257.156-3.22.793-1.214.804-2.531 2.659-2.944 4.145-.143.515-.26 3.763-.261 7.22l-.003 6.283h-3.704v-10.715Zm61.913 10.341c0-.368 10.323-26.692 10.865-27.704.24-.447.511-.51 1.91-.443l1.63.079 5.498 14.006c3.023 7.704 5.497 14.103 5.497 14.222 0 .362-3.649.253-3.881-.116-.115-.182-.885-2.032-1.711-4.111-.827-2.08-1.648-3.954-1.825-4.167-.262-.316-1.26-.387-5.382-.384-2.783.003-5.189.092-5.346.199-.157.107-.975 1.98-1.817 4.163a5764.61 5764.61 0 0 1-1.662 4.3c-.194.498-3.776.457-3.776-.043zm16.565-11.909c.14-.363-3.43-10.372-3.86-10.825-.117-.123-.421.413-.678 1.19-.256.777-1.157 3.248-2.002 5.492-.844 2.243-1.474 4.178-1.4 4.3.076.12 1.86.22 3.966.22 3.07 0 3.858-.075 3.974-.377zm12.01-2.93v-15.214h3.704v30.427h-3.704zm54.504 4.498v-10.716h3.175l.004 1.124c.007 1.962.33 2.088 1.772.69 1.869-1.812 2.56-2.079 5.385-2.079h2.425l-.189 1.522c-.103.836-.222 1.557-.264 1.6-.042.045-1.022.104-2.178.133-1.808.045-2.257.156-3.22.793-1.213.804-2.53 2.659-2.943 4.145-.143.515-.26 3.763-.262 7.22l-.002 6.283H46.17v-10.715Zm-76.2-39.423v-15.478h1.587c1.555 0 1.588.015 1.592.727.008 1.364.376 1.562 1.361.73 1.592-1.343 2.763-1.71 5.483-1.716 3.445-.008 4.337.311 6.293 2.251 2.223 2.206 2.851 4.133 2.842 8.723-.01 4.614-.635 6.534-2.842 8.723-1.942 1.927-2.848 2.257-6.187 2.257-2.73 0-3.77-.277-5.186-1.382-.555-.433-1.07-.727-1.144-.653-.074.075-.122 2.646-.106 5.716l.03 5.58h-3.723zm11.716 2.95c4.843-2.036 5.18-12.702.48-15.17-2.122-1.114-5.306-.643-6.826 1.01-1.034 1.125-1.473 2.6-1.605 5.392-.217 4.598.813 7.396 3.146 8.551 1.345.666 3.505.763 4.805.216zm-88.704 2.858c-2.002-.558-3.347-1.404-4.98-3.131-2.677-2.83-3.62-6.06-3.432-11.753.093-2.82.25-4.006.707-5.344 1.181-3.46 4.034-6.491 7.26-7.716 1.461-.555 2.067-.618 5.863-.618 3.435 0 4.55.096 5.915.513.924.282 1.743.675 1.82.874.16.42-.64 2.315-1.16 2.747-.267.221-.91.114-2.588-.432-1.932-.628-2.549-.711-4.586-.614-1.877.09-2.654.26-3.831.836-2.937 1.436-4.653 3.94-5.44 7.936-.764 3.88.3 8.506 2.546 11.063.453.516 1.571 1.338 2.486 1.827 1.461.782 1.956.903 4.08.999 1.62.072 3.144-.04 4.625-.34 1.215-.246 2.33-.468 2.478-.493.152-.026.304.67.348 1.592l.078 1.638-1.004.31c-1.655.513-9.464.586-11.185.106zm19.04-.196c-1.679-.888-2.597-2.164-2.934-4.08-.434-2.462.01-4.193 1.426-5.558.613-.592 1.51-1.275 1.993-1.518 1.33-.669 4.57-1.203 7.295-1.203 1.543 0 2.553-.117 2.754-.318.51-.509.368-2.382-.277-3.661-1.107-2.194-3.678-2.701-7.21-1.422-2.681.97-2.757.961-3.302-.418-.258-.653-.412-1.336-.342-1.518.07-.182 1.073-.63 2.23-.995 1.701-.537 2.642-.664 4.933-.663 1.557 0 3.307.134 3.888.296 1.38.383 3.158 2.16 3.541 3.54.187.672.294 4.121.295 9.458l.003 8.4h-1.313c-1.308 0-1.314-.003-1.598-1.057-.157-.583-.41-1.059-.563-1.059-.153 0-.766.417-1.362.927-1.399 1.198-2.382 1.451-5.64 1.453-2.275 0-2.84-.088-3.816-.604zm7.709-3.044c.995-.52 1.634-1.094 2.153-1.933.86-1.39 1.25-3.708.73-4.335-.664-.799-5.683-.373-7.824.664-2.63 1.273-2.805 4.68-.304 5.913 1.385.683 3.595.552 5.245-.31zm78.681 3.252c-1.352-.48-3.176-2.397-3.546-3.73-.178-.639-.288-4.18-.288-9.3l-.002-8.268h3.411l.08 7.871c.075 7.313.118 7.935.61 8.77.882 1.496 1.772 1.982 3.847 2.1 1.593.09 2.045.007 3.3-.607 2.815-1.378 3.304-3.143 3.304-11.93v-6.204h3.44v21.432H11.14c-1.475 0-1.748-.208-1.748-1.33 0-.858-.549-.872-1.413-.034-.461.447-1.359.996-1.995 1.22-1.493.527-6.096.533-7.573.01zm21.747.119c-1.894-.468-2.035-.633-2.035-2.377 0-1.817.03-1.83 2.117-.996 1.179.471 2.007.584 4.365.595 3.32.016 4.306-.355 5.035-1.893.378-.796.376-.951-.028-1.802-.366-.773-.85-1.126-2.856-2.088a90.25 90.25 0 0 0-4.267-1.904c-3.497-1.409-4.964-3.573-4.504-6.642.254-1.691 2.074-3.629 3.927-4.179 2.801-.832 9.87-.282 10.801.84.251.303.199.626-.254 1.558-.656 1.35-.82 1.383-3.181.642-3.28-1.028-6.301-.575-7.555 1.135-.527.718-.528.753-.054 1.633.564 1.047 2.173 1.96 6.09 3.454 2.14.817 2.878 1.25 4.003 2.352 1.157 1.135 1.407 1.553 1.559 2.608.424 2.959-.688 5.264-3.154 6.534-1.211.624-1.607.68-5.157.727-2.114.029-4.298-.06-4.852-.197zm-87.23-10.702v-10.715h3.115l.174.926c.096.509.294.926.442.926.147 0 .715-.36 1.26-.798 1.306-1.05 2.343-1.32 5.06-1.318 2.934.003 4 .325 5.363 1.622.706.673 1.233.986 1.422.847.166-.122.731-.562 1.257-.98 1.446-1.148 2.652-1.466 5.586-1.473 2.955-.006 4.219.394 5.476 1.736 1.584 1.689 1.646 2.093 1.75 11.41l.095 8.533h-3.749v-7.75c0-7.51-.018-7.785-.595-8.929-1.769-3.508-7.65-2.498-8.965 1.54-.206.63-.359 3.522-.427 8.061l-.105 7.078h-3.373l-.08-7.871c-.076-7.384-.115-7.93-.624-8.797-.855-1.454-2.051-2.118-3.82-2.118-2.263 0-3.627.818-4.633 2.78l-.793 1.547-.082 7.23-.082 7.229h-3.673zm-122.943-32.826c-.088-.228-.048-.526.088-.662.152-.152 59.73-.221 155.808-.18 155.363.066 155.562.067 155.562.595 0 .529-.199.53-155.65.596-141.152.06-155.664.028-155.808-.349zm97.611-15.343c-3.52-1.754-5.05-5.386-4.773-11.33.185-3.975.741-5.462 2.848-7.615 2.006-2.051 2.749-2.336 6.09-2.336 2.764 0 3.978.319 5.158 1.355.501.44 1.034.724 1.184.631.172-.106.272-2.11.272-5.444v-5.276h3.44v30.427h-1.444c-1.44 0-1.443-.003-1.617-.929-.096-.51-.284-.997-.419-1.08-.134-.083-.708.267-1.274.779-1.315 1.188-2.448 1.491-5.58 1.493-2.182 0-2.712-.09-3.885-.675zm7.629-2.85c2.423-1.28 3.544-4.83 2.944-9.32-.414-3.092-1.274-4.648-3.06-5.538-2.338-1.165-5.091-.769-6.71.966-1.134 1.217-1.743 3.098-1.874 5.794-.2 4.135.944 7.048 3.21 8.17 1.561.772 3.95.741 5.49-.072zm18.482 3.22c-1.223-.326-3.306-1.912-4.404-3.351-1.357-1.78-1.8-3.613-1.8-7.455 0-4.41.45-5.822 2.583-8.102 2.083-2.226 3.44-2.746 7.17-2.746 3.411 0 4.758.432 6.606 2.121 2.657 2.429 3.505 4.964 3.285 9.818-.176 3.89-.616 5.104-2.631 7.258-2.115 2.26-3.46 2.774-7.167 2.736-1.486-.015-3.125-.14-3.642-.278zm6.94-3.544c3.913-2.752 3.92-11.503.01-14.251-.895-.629-1.473-.814-2.815-.9-2.965-.188-4.85.896-6.006 3.455-.553 1.224-.627 1.773-.615 4.566.011 2.68.102 3.36.58 4.366.772 1.62 1.316 2.23 2.713 3.038 1.036.599 1.44.678 3.093.607 1.614-.07 2.073-.203 3.039-.881zm22.972 3.382-1.72-.458-.079-1.817-.079-1.818.74.133c.408.073 1.683.385 2.834.693 1.41.378 2.882.56 4.516.56 2.12 0 2.604-.09 3.86-.727 1.808-.916 2.628-2.085 2.627-3.743-.003-2.419-1.212-3.505-6.047-5.429-3.808-1.516-5.012-2.227-6.358-3.756-1.285-1.46-1.614-2.49-1.616-5.072-.002-3.089 1.093-4.906 3.835-6.365 1.274-.678 1.48-.704 5.557-.704 4.48 0 7.12.479 7.456 1.353.161.42-.253 2.057-.693 2.739-.216.334-.518.3-2.184-.243-2.565-.836-5.9-1.031-7.456-.437-2.772 1.059-3.71 3.869-2.064 6.18.66.928 2.663 2.018 6.396 3.481 3.153 1.237 4.961 2.446 5.997 4.012.592.894.734 1.449.827 3.242.155 2.965-.223 4.177-1.83 5.877-2.131 2.253-3.221 2.6-8.434 2.686-3.473.057-4.717-.022-6.085-.386zm25.267.07c-1.352-.478-3.176-2.396-3.546-3.728-.178-.64-.288-4.18-.288-9.301l-.002-8.268h3.411l.08 7.871c.075 7.313.118 7.935.61 8.77.882 1.496 1.772 1.982 3.847 2.1 1.593.09 2.045.007 3.3-.607 2.815-1.378 3.304-3.142 3.304-11.93v-6.204h3.44v21.432H1.616c-1.475 0-1.748-.208-1.748-1.329 0-.86-.549-.873-1.413-.035-.461.447-1.359.996-1.995 1.22-1.493.527-6.096.533-7.573.01zm20.77-15.08v-15.213h3.704v30.427H9.657Zm-112.197-30.336c-1.222-.326-3.306-1.912-4.404-3.352-1.357-1.78-1.8-3.613-1.8-7.454 0-4.41.45-5.822 2.583-8.102 2.083-2.227 3.44-2.746 7.17-2.746 3.411 0 4.758.432 6.606 2.12 2.657 2.43 3.506 4.965 3.285 9.819-.176 3.89-.616 5.104-2.631 7.258-2.115 2.26-3.459 2.773-7.167 2.736-1.486-.015-3.125-.14-3.642-.279zm6.94-3.545c3.913-2.75 3.92-11.502.01-14.25-.895-.63-1.473-.814-2.814-.9-2.965-.188-4.85.896-6.007 3.455-.553 1.224-.627 1.773-.615 4.566.011 2.68.102 3.36.58 4.366.772 1.62 1.316 2.23 2.714 3.038 1.035.599 1.439.678 3.092.607 1.614-.07 2.073-.203 3.04-.882zm30.645 3.489c-2.184-.63-3.293-1.314-5.175-3.195-3.1-3.1-3.957-5.8-3.742-11.789.1-2.765.26-3.947.713-5.232 1.198-3.404 4.311-6.52 7.734-7.743 2.563-.915 8.59-1.05 11.973-.269 1.363.315 2.618.74 2.788.945.473.57-.882 3.424-1.525 3.213-4.247-1.395-4.983-1.535-7.607-1.443-2.29.08-2.878.202-4.378.906-2.398 1.127-3.533 2.214-4.616 4.424-1.479 3.014-1.828 6.107-1.058 9.372.83 3.521 2.461 5.648 5.399 7.04 1.703.807 1.83.826 5.591.826 3.239 0 3.962-.074 4.564-.47l.716-.468v-3.778c0-2.585-.1-3.877-.318-4.095-.207-.207-1.305-.317-3.175-.317h-2.857v-2.911h9.799l-.071 7.078-.07 7.078-1.853.497c-2.396.643-10.98.864-12.832.33zm38.89-.243c-1.68-.888-2.597-2.165-2.935-4.08-.434-2.463.01-4.193 1.426-5.559.614-.591 1.51-1.274 1.994-1.517 1.329-.669 4.569-1.203 7.294-1.203 1.543 0 2.554-.117 2.755-.318.51-.51.367-2.382-.278-3.661-1.106-2.195-3.677-2.702-7.21-1.422-2.68.97-2.757.96-3.301-.418-.258-.653-.413-1.337-.343-1.518.07-.182 1.073-.63 2.23-.995 1.702-.538 2.643-.664 4.934-.663 1.556 0 3.306.134 3.888.295 1.38.384 3.157 2.16 3.54 3.541.187.672.295 4.121.296 9.458l.002 8.4h-1.313c-1.307 0-1.313-.003-1.597-1.058-.157-.582-.41-1.058-.564-1.058-.153 0-.766.417-1.361.927-1.4 1.198-2.383 1.45-5.64 1.453-2.275 0-2.84-.089-3.816-.604zm7.708-3.045c.995-.52 1.635-1.093 2.154-1.933.859-1.39 1.249-3.707.729-4.334-.663-.799-5.682-.373-7.824.664-2.63 1.273-2.804 4.68-.303 5.913 1.384.683 3.595.552 5.244-.31zm41.313 2.974c-3.52-1.755-5.05-5.386-4.774-11.33.186-3.976.742-5.463 2.848-7.615 2.007-2.051 2.75-2.336 6.09-2.336 2.765 0 3.978.319 5.159 1.355.5.44 1.033.724 1.183.631.172-.106.272-2.11.272-5.444v-5.276h3.44v30.427h-1.443c-1.441 0-1.444-.003-1.618-.93-.096-.51-.284-.996-.419-1.08-.134-.083-.708.268-1.274.78-1.315 1.188-2.447 1.49-5.579 1.493-2.183 0-2.713-.091-3.885-.675zm7.149-2.605c1.05-.457 2.171-1.51 2.703-2.539 1.25-2.418 1.094-8.04-.294-10.592-1.655-3.04-6.354-3.58-8.755-1.007-1.135 1.217-1.744 3.099-1.874 5.795-.2 4.135.944 7.048 3.21 8.17 1.303.645 3.733.729 5.01.173zm18.54 2.73c-2.68-1.03-4.86-3.602-5.555-6.554-.766-3.255-.254-8.211 1.085-10.495.896-1.53 2.995-3.4 4.434-3.949.982-.375 1.814-.45 4.093-.373 2.558.088 2.994.177 4.122.838 1.608.942 3.244 3.008 3.76 4.745.227.764.402 2.37.402 3.687v2.333h-6.979c-8.044 0-7.83-.06-7.314 2.092.637 2.654 2.58 4.586 4.973 4.945 1.747.262 4.732-.045 6.518-.67.86-.3 1.663-.546 1.786-.546.372 0 .26 3.079-.123 3.398-1.393 1.155-8.694 1.514-11.202.55zm8.437-12.948c.332-.528-.14-2.285-.924-3.436-.964-1.416-1.874-1.936-3.61-2.062-2.17-.157-3.906.771-4.916 2.628-.95 1.743-1.222 2.746-.848 3.119.203.203 1.83.274 5.17.225 4.02-.06 4.919-.142 5.128-.474zm-199.296-1.074v-14.308l6.417.087c5.86.08 6.52.135 7.62.644 1.683.779 3.02 2.03 3.732 3.49.877 1.797.878 5.717.003 7.512-.673 1.38-2.23 2.915-3.644 3.589-.64.305-.894.582-.814.888.064.244 1.617 2.943 3.452 5.996 1.834 3.054 3.411 5.75 3.504 5.993.15.392-.07.432-2.046.363l-2.216-.078-3.175-5.452c-1.746-2.998-3.338-5.647-3.538-5.887-.286-.342-.852-.435-2.659-.435-1.433 0-2.415.12-2.613.318-.227.227-.318 1.922-.318 5.953v5.636h-3.704v-14.309Zm8.959-.766c3.84-.442 5.682-2.154 5.682-5.282 0-2.393-1.192-4.026-3.388-4.643-1.973-.554-6.65-.817-7.15-.402-.328.273-.398 1.178-.398 5.14 0 3.388.094 4.904.317 5.127.382.383 1.962.402 4.937.06zm15.383 4.359v-10.716h3.704v21.432h-3.704zm73.819 0v-10.716h3.175l.004 1.125c.007 1.962.33 2.087 1.772.69 1.869-1.812 2.56-2.08 5.385-2.08h2.425l-.189 1.522c-.103.837-.222 1.557-.264 1.601-.042.044-1.022.104-2.178.133-1.808.045-2.256.155-3.22.793-1.213.804-2.53 2.658-2.943 4.145-.143.514-.26 3.763-.262 7.219l-.002 6.284h-3.704v-10.716zm38.629 0v-10.716h3.107l.17 1.059c.202 1.268.593 1.334 1.611.271 1.184-1.235 2.854-1.656 6.164-1.551 3.323.104 4.465.555 5.79 2.284 1.257 1.638 1.414 2.93 1.414 11.576v7.793H9.43l-.085-7.74c-.082-7.58-.096-7.761-.71-8.832-.881-1.537-2.203-2.215-4.304-2.208-2.75.01-4.347 1.013-5.468 3.434-.354.764-.446 2.19-.524 8.136l-.096 7.21h-3.666ZM-117.64 263.47c-.2-.241-.363-.997-.363-1.68 0-.682.163-1.438.363-1.679.52-.627 2.718-.596 3.3.047.616.68.588 2.738-.046 3.311-.653.592-2.763.592-3.254 0zm114.877-28.008c-2.223-3.567-4.276-6.781-4.561-7.144-.435-.552-.743-.659-1.902-.659-.76 0-1.526.143-1.7.318-.23.23-.318 2.158-.318 7.011v6.694h-8.202v-37.041l5.093.008c6.722.01 11.28.362 13.468 1.04 3.463 1.072 5.885 3.419 6.723 6.515.615 2.272.442 6.361-.343 8.105-.689 1.53-2.594 3.608-4.33 4.721-.713.458-1.296.894-1.296.968 0 .142 3.095 4.774 7.354 11.009 1.375 2.012 2.6 3.559 2.72 3.438.122-.121 2.9-7.862 6.175-17.202 3.275-9.34 6.132-17.405 6.348-17.924l.394-.943h9.744l.423 1.125c1.035 2.752 12.614 35.772 12.614 35.972 0 .122-1.988.19-4.418.15l-4.418-.073-1.253-4.074c-.689-2.241-1.41-4.174-1.601-4.296-.192-.121-3.043-.223-6.336-.225-4.734-.003-6.05.072-6.286.357-.164.198-.833 2.113-1.485 4.255-.653 2.141-1.254 4.003-1.336 4.137-.087.14-3.787.243-8.69.243H1.28l-4.044-6.485zm34.78-9.456c.162-.454-3.931-13.503-4.27-13.616-.317-.106-4.423 13.318-4.19 13.695.248.4 8.317.325 8.46-.08zm-40-4.952c2.992-.315 4.462-1.004 5.342-2.505 1.362-2.325.665-4.902-1.678-6.195-1.305-.72-5.994-1.277-6.59-.783-.462.384-.478 8.96-.017 9.42.174.175.383.316.463.314.08-.003 1.196-.116 2.48-.25zm-136.082 2.107v-18.52h21.432v6.614h-6.43c-4.648 0-6.517.088-6.747.318-.444.444-.444 8.445 0 8.89.228.228 1.982.317 6.218.317h5.9v6.35h-5.9c-4.236 0-5.99.09-6.218.318-.23.23-.317 2.216-.317 7.276v6.958h-7.938zm28.575 0v-18.52h21.432v6.614h-6.297c-4.545 0-6.386.088-6.615.318-.215.214-.318 1.44-.318 3.783s.103 3.57.318 3.784c.228.228 1.981.317 6.218.317h5.9v6.35h-5.9c-4.237 0-5.99.09-6.218.318-.444.444-.444 8.181 0 8.625.23.23 2.07.318 6.615.318h6.297v6.614h-21.432zm28.84 0v-18.52l5.49.006c9.834.01 13.441.53 17.132 2.465 2.323 1.219 5.12 4.116 6.312 6.537 1.476 2.996 1.826 5.133 1.689 10.306-.101 3.8-.206 4.64-.808 6.482-1.917 5.86-6.363 9.548-13.103 10.866-1.403.274-3.99.38-9.327.38h-7.385v-18.522zm15.449 11.094c3.164-.97 5.112-2.936 6.275-6.331.783-2.285.854-7.012.14-9.393-1.408-4.705-3.982-6.586-9.696-7.086-2.496-.219-3.232-.205-3.557.064-.357.297-.409 1.763-.409 11.632 0 8.644.077 11.369.329 11.62.45.45 4.85.129 6.918-.506zm22.651-11.094v-18.52h21.43v6.614h-6.297c-4.545 0-6.385.088-6.614.318-.215.214-.318 1.44-.318 3.783s.103 3.57.318 3.784c.228.228 1.981.317 6.217.317h5.9v6.35h-5.9c-4.236 0-5.99.09-6.217.318-.444.444-.444 8.181 0 8.625.229.23 2.07.318 6.614.318h6.297v6.614h-21.43zm98.69 0v-18.52h8.202v14.896c0 11.233.078 14.974.317 15.213.231.231 2.246.318 7.408.318h7.091v6.614H50.14Zm-158.15-26.858a26.221 26.221 0 0 1-3.175-.981l-1.527-.606-.073-3.901c-.045-2.396.026-3.902.184-3.902.141 0 1.3.42 2.573.934 6.478 2.612 11.488 2.64 13.053.074.677-1.112.675-1.878-.011-3.099-.68-1.21-2.272-2.303-5.642-3.872-5.127-2.388-7.483-4.32-8.84-7.251-1.225-2.643-1.054-7.27.358-9.708.796-1.373 2.926-3.305 4.41-4.001 2.64-1.237 8.31-1.573 12.113-.716 2.084.469 6.085 1.899 6.085 2.174 0 .406-2.215 5.537-2.557 5.924-.353.4-.598.358-3.08-.524-2.383-.847-2.995-.96-5.257-.964-2.193-.005-2.666.075-3.307.552-1.167.869-1.76 2.073-1.557 3.158.28 1.497 1.693 2.619 5.922 4.704 4.46 2.198 5.838 3.087 7.376 4.755 2.038 2.212 2.322 3.041 2.325 6.802.003 2.824-.08 3.486-.563 4.53-1.108 2.398-3.583 4.56-6.384 5.578-1.275.463-2.254.564-6.147.633-3.31.06-5.1-.024-6.279-.293zm112.33-.008c-.826-.2-2.07-.631-2.764-.957-1.664-.783-4.578-3.558-5.485-5.226-1.386-2.545-1.484-3.736-1.49-17.949l-.004-13.03h7.938l.002 10.913c.003 12.444.17 14.678 1.245 16.674 1.21 2.246 2.948 3.1 6.318 3.103 1.556 0 2.146-.134 3.463-.792 1.29-.645 1.714-1.03 2.263-2.05 1.172-2.184 1.261-3.316 1.261-15.955v-11.894h7.938L25 172.561c-.004 14.056-.049 14.693-1.205 17.131-.697 1.47-3.55 4.4-5.107 5.248-2.33 1.268-4.947 1.767-9.14 1.742-2.183-.013-4.35-.173-5.23-.386zm69.648-.122c-1.083-.291-2.456-.765-3.05-1.053-1.889-.914-4.167-2.976-5.564-5.034-2.357-3.473-3.19-7.292-2.97-13.623.229-6.559 1.434-9.874 4.812-13.23 3.235-3.213 6.578-4.382 12.577-4.398 6-.017 9.328 1.038 12.485 3.955 2.745 2.537 4.29 5.602 4.98 9.874.503 3.124.216 10.147-.519 12.66-1.539 5.266-4.918 8.918-9.802 10.598-1.464.503-2.409.605-6.35.686-3.999.082-4.9.023-6.6-.435zm9.234-6.85c1.904-.723 3.246-1.9 4.194-3.679 1.161-2.178 1.63-4.437 1.63-7.858 0-3.425-.47-5.68-1.634-7.867-1.594-2.99-4.101-4.298-7.884-4.112-1.752.086-2.544.262-3.584.797-3.666 1.881-5.336 5.872-5.067 12.108.26 6.022 2.24 9.53 6.051 10.72 1.722.537 4.731.485 6.294-.109zm-252.667-11.67v-18.52h8.202v37.04h-8.202zm16.934 0v-18.52h10.042l.467.713c.258.393 3.684 6.247 7.613 13.009 3.93 6.762 7.264 12.334 7.41 12.383.175.058.234-4.355.175-13.009l-.09-13.097h7.456v37.041h-10.52l-7.506-13.086c-4.129-7.197-7.626-13.091-7.771-13.097-.174-.007-.235 4.47-.179 13.087l.086 13.097h-7.183zm76.993 3.757c0-11.13-.078-14.842-.317-15.081-.223-.223-1.717-.318-5.027-.318h-4.71v-6.879h28.311v6.88h-4.71c-3.31 0-4.804.094-5.027.317-.24.24-.317 3.951-.317 15.081v14.764h-8.202zm23.548-3.757v-18.52h8.202v37.04h-8.202zm23.284 3.757c0-11.13-.078-14.842-.318-15.081-.223-.223-1.717-.318-5.027-.318h-4.71v-6.879h28.311v6.88h-4.71c-3.31 0-4.804.094-5.027.317-.24.24-.317 3.951-.317 15.081v14.764h-8.202zm69.056 0c0-11.13-.078-14.842-.318-15.081-.223-.223-1.716-.318-5.027-.318h-4.71v-6.879h28.311v6.88h-4.71c-3.31 0-4.803.094-5.026.317-.24.24-.318 3.951-.318 15.081v14.764H40.35zm-138.795-49.1-.905-.906v-17.298c0-19.187-.098-18.128 1.746-18.899 1.306-.545 33.302-.545 34.608 0 1.844.77 1.746-.285 1.746 18.868v17.268l-.772.864-.772.864-17.373.072-17.373.071zm45.508 0-.905-.906v-17.298c0-19.187-.098-18.128 1.746-18.899 1.306-.545 33.302-.545 34.608 0 1.844.77 1.746-.285 1.746 18.868v17.268l-.772.864-.772.864-17.372.072-17.373.071zM-97.66 87.438c-.307-.125-.813-.552-1.124-.948-.565-.718-.566-.747-.566-18.01V51.19l.772-.864.772-.864 16.757-.08c11.44-.055 17.067.01 17.734.204.538.158 1.223.597 1.522.977.535.68.543.94.543 17.98v17.291l-.772.864-.772.864-17.154.053c-9.434.029-17.405-.05-17.712-.177zm45.508 0c-.307-.125-.813-.552-1.124-.948-.565-.718-.566-.748-.566-17.954 0-19.119-.097-18.067 1.746-18.837 1.306-.546 33.302-.546 34.608 0 1.844.77 1.746-.285 1.746 18.868v17.267l-.772.864-.772.864-17.153.053c-9.435.029-17.405-.05-17.713-.177zm45.509 0c-.308-.125-.814-.552-1.125-.948-.564-.718-.565-.748-.565-17.954 0-19.119-.098-18.067 1.746-18.837 1.306-.546 33.302-.546 34.608 0 1.843.77 1.746-.285 1.746 18.868v17.267l-.772.864-.772.864-17.154.053c-9.434.029-17.405-.05-17.712-.177zM-97.66 41.93c-.307-.126-.813-.552-1.124-.948-.565-.718-.566-.747-.566-18.01V5.684l.772-.864.772-.864 17.019-.072c12.43-.052 17.218.01 17.757.234.407.169.974.604 1.26.968.505.642.52 1.161.52 17.952v17.29l-.772.864-.772.864-17.154.052c-9.434.03-17.405-.05-17.712-.176zm45.508 0c-.307-.126-.813-.552-1.124-.948-.565-.718-.566-.747-.566-18.01V5.684l.772-.864.772-.864 17.019-.072c12.43-.052 17.218.01 17.758.234.406.169.973.604 1.26.968.504.642.52 1.161.52 17.952v17.29l-.773.864-.772.864-17.153.052c-9.435.03-17.405-.05-17.713-.176zM-6.644-3.577c-.308-.126-.814-.553-1.125-.948-.564-.718-.565-.748-.565-18.01v-17.29l.772-.864.772-.864h35.012l.772.864.772.864v34.644l-.772.864-.772.864-17.154.052c-9.434.029-17.405-.05-17.712-.176zm-78.536-.298c-8.442-1.141-15.443-7.541-17.52-16.015-.644-2.631-.584-7.55.125-10.192 1.69-6.3 6.424-11.675 12.431-14.116 3.984-1.62 10.013-1.904 13.944-.659 6.966 2.206 12.223 7.541 14.206 14.416.517 1.792.608 2.706.596 5.953-.014 3.619-.063 3.98-.875 6.35C-65.16-9.715-72.225-4.32-81.095-3.767c-1.237.077-3.075.028-4.085-.108zm32.72-.238c-.477-.292-.983-.836-1.125-1.21-.411-1.082-.335-34.208.08-35.04.182-.363.746-.87 1.253-1.127.857-.432 2.139-.46 17.905-.397l16.982.07.811.776.811.777v34.992l-.81.777-.812.777-17.114.069c-16.738.066-17.134.056-17.981-.464z" transform="translate(43.9 10.607) scale(.23076)"/><path style="fill:#c52128;stroke-width:4.33342838" d="M26.274 446.114c-2.941-.824-4.303-2.526-4.286-5.359.012-2.036.605-3.113 2.364-4.293 1.542-1.035 1.65-1.232 1.044-1.902-1.053-1.163-.73-3.628.638-4.866.75-.679.701-1.076-.214-1.728-2.701-1.923-2.9-7.738-.356-10.4.382-.4 1.358-.975 2.168-1.278 1.402-.525 1.78-.542 7.888-.361l6.416.19v1.737l-1.723.184c-.948.102-1.777.271-1.842.377-.066.106.127.836.428 1.622.777 2.033.588 4.54-.474 6.264-1.206 1.959-2.937 2.764-6.352 2.954-2.541.141-2.751.197-3.523.936-.961.922-1.226 1.728-.817 2.49.507.95 1.26 1.122 5.789 1.327 3.744.17 4.58.287 5.513.768 2.132 1.1 3.01 3.222 2.491 6.026-.464 2.512-1.633 3.779-4.554 4.937-1.178.466-2.09.575-5.387.643-2.705.055-4.364-.03-5.211-.268zm9.836-2.962c3.125-1.687 3.458-4.7.678-6.137-1.195-.618-8.426-.622-9.57-.006-3.324 1.79-3.108 5.709.376 6.834.394.127 2.145.2 3.891.16 2.946-.064 3.28-.126 4.625-.852zm-1.82-16.593c.495-.329 1.176-1.133 1.514-1.786 1.06-2.052.447-4.84-1.361-6.188-.62-.462-1.124-.557-2.958-.557-2.376 0-3.079.298-4.18 1.772-1.045 1.4-.912 4.384.257 5.774.942 1.12 2.029 1.535 4.083 1.56 1.395.018 1.927-.098 2.646-.575zm-151.792 10.276c-2.55-.798-4.697-3.051-5.557-5.83-.586-1.894-.772-5.614-.38-7.61 1.009-5.15 4.054-7.616 9.404-7.616 3.212 0 5.025.633 6.74 2.353 2.23 2.238 3.067 4.974 2.855 9.327-.174 3.572-.838 5.364-2.685 7.245-1.85 1.886-3.576 2.512-6.854 2.489-1.34-.01-2.926-.171-3.523-.358zm6.055-2.364c1.104-.464 2.949-2.48 3.325-3.633.91-2.79.842-6.762-.153-8.998-.616-1.385-1.975-2.782-3.213-3.304-1.372-.578-4.046-.482-5.49.196-2.55 1.199-3.676 3.918-3.484 8.404.1 2.34.232 3.015.801 4.121.738 1.433 1.729 2.475 2.98 3.133.996.524 4.066.572 5.234.081zm32.186 2.126c-.847-.448-1.34-.962-1.827-1.91-.66-1.28-.67-1.395-.757-8.581-.055-4.506-.193-7.41-.363-7.615-.151-.182-.796-.33-1.433-.33-1.065 0-1.158-.055-1.158-.677 0-.564.239-.781 1.445-1.315l1.446-.64.56-1.925c.31-1.06.608-2.075.664-2.257.056-.183.52-.33 1.036-.33h.934v2.196c0 1.355.122 2.317.318 2.513.206.206 1.276.318 3.043.318h2.725v2.116h-2.725c-1.767 0-2.837.112-3.043.318-.23.23-.317 2.171-.317 7.077 0 6.234.042 6.826.517 7.606.874 1.433 1.598 1.74 3.846 1.626l1.986-.1v1.098c0 1.333-.204 1.416-3.464 1.422-1.872.003-2.478-.105-3.433-.61zm16.263.252c-2.575-.839-4.7-3.073-5.557-5.844-.227-.735-.479-2.373-.56-3.641-.33-5.191 1.35-8.942 4.804-10.733 1.154-.598 1.745-.71 4.25-.797 3.655-.129 5.4.423 7.27 2.298 2.23 2.238 3.068 4.974 2.855 9.327-.218 4.48-1.745 7.308-4.8 8.892-1.187.615-1.717.712-4.266.777-1.904.049-3.286-.048-3.996-.28zm6.055-2.378c.468-.197 1.351-.902 1.962-1.567 1.442-1.569 2.004-3.45 1.99-6.66-.014-3.183-.658-4.937-2.417-6.583-1.455-1.36-2.327-1.618-4.917-1.453-2.277.145-3.65 1.084-4.76 3.252-.766 1.5-.796 1.691-.794 5.017.003 3.227.05 3.545.703 4.78.762 1.44 1.759 2.48 2.999 3.133.996.524 4.066.572 5.234.081zm64.178 2.387c-4.301-1.61-6.316-4.905-6.305-10.31.01-4.969 1.905-8.568 5.316-10.099 1.5-.673 1.821-.72 4.302-.618 2.991.122 4.161.555 5.696 2.11 1.627 1.649 2.215 3.206 2.354 6.239l.124 2.712H11.71c-8.189 0-7.902-.091-7.395 2.336.375 1.797 1.383 3.319 2.909 4.391 1.01.71 1.371.8 3.576.896 1.775.078 2.927-.019 4.162-.349 3.156-.844 2.898-.897 2.898.592 0 1.296-.015 1.32-1.124 1.78-1.524.634-8.074.854-9.5.32zm7.98-12.481c.643-.775-.298-3.878-1.495-4.928-2.12-1.86-5.817-1.697-7.67.34-1.24 1.36-2.185 3.986-1.663 4.614.47.567 10.356.542 10.828-.026zm52.278 12.193c-2.126-.895-3.27-1.884-4.273-3.694-1.438-2.598-1.846-6.477-1.04-9.895.778-3.301 2.34-5.374 4.92-6.532 1.501-.673 1.822-.72 4.303-.618 2.988.121 4.149.55 5.705 2.11 1.53 1.533 2.23 3.426 2.353 6.37l.108 2.58h-7.01c-8.184 0-7.898-.09-7.39 2.337.374 1.797 1.383 3.319 2.908 4.391 1.01.71 1.371.8 3.577.896 1.774.078 2.926-.019 4.161-.349 3.158-.845 2.899-.899 2.899.607v1.33l-1.257.457c-.88.32-2.327.49-4.829.563-3.337.098-3.675.062-5.135-.553zm8.576-12.193c.643-.775-.298-3.878-1.494-4.928-2.12-1.86-5.818-1.697-7.672.34-1.238 1.36-2.184 3.986-1.662 4.614.47.567 10.356.542 10.828-.026zm-222.516-1.454V408.9h5.236c5.792 0 7.518.277 9.574 1.537 3.984 2.443 4.18 10.253.332 13.189-2.01 1.532-3.74 2.013-7.734 2.146-1.964.065-3.72.24-3.902.387-.245.198-.33 1.64-.33 5.527v5.26h-3.176zm10.577-.178c2.035-.563 3.533-2.092 3.946-4.026.726-3.404-.966-6.171-4.204-6.879-2.213-.483-6.302-.664-6.743-.298-.335.278-.4 1.238-.4 5.804 0 4.023.087 5.56.33 5.804.427.43 5.004.168 7.07-.405zm37.313 3.75v-10.451h2.646v1.14c0 .627.168 1.37.373 1.65.357.489.423.456 1.45-.71 1.543-1.754 2.959-2.345 5.615-2.345h2.153l-.166.827c-.09.455-.165 1.05-.165 1.323 0 .437-.217.496-1.835.496-2.293 0-3.03.275-4.47 1.669-2.25 2.176-2.283 2.317-2.376 10.039l-.083 6.813h-3.142zm61.912 10.326c0-.07 1.731-4.504 3.846-9.856 2.116-5.352 4.586-11.61 5.49-13.905l1.644-4.175 1.445.074 1.445.073 2.34 5.953c1.288 3.275 3.637 9.24 5.222 13.257 1.584 4.018 2.96 7.62 3.056 8.004.175.697.17.7-1.38.7h-1.557l-1.656-4.209c-.911-2.314-1.816-4.34-2.012-4.503-.243-.201-2.069-.272-5.746-.224l-5.39.072-.46.926c-.253.51-1.074 2.504-1.825 4.432l-1.364 3.506h-1.55c-.85 0-1.548-.057-1.548-.125zm16.634-11.607c.224-.27-.184-1.647-1.702-5.755a859.523 859.523 0 0 1-2.106-5.73c-.173-.523-.643-.387-.915.264-1.245 2.977-3.984 10.902-3.87 11.199.205.533 8.151.554 8.593.022zm11.941-3.217v-14.95h3.175v29.899H-8.07zm54.504 4.498v-10.451h2.646v1.14c0 .627.168 1.37.374 1.65.357.489.422.456 1.45-.71 1.543-1.754 2.959-2.345 5.615-2.345h2.152l-.165.827c-.091.455-.165 1.05-.165 1.323 0 .437-.218.496-1.835.496-2.293 0-3.03.275-4.471 1.669-2.249 2.176-2.282 2.317-2.376 10.039l-.082 6.813h-3.143Zm-76.2-39.423v-15.214h2.579l.166 1.043c.226 1.412.587 1.546 1.578.59 1.45-1.402 2.903-1.885 5.682-1.892 2.101-.005 2.674.094 3.895.672.788.372 1.851 1.167 2.363 1.765 3.404 3.977 3.2 13.31-.369 16.878-1.565 1.566-3.11 2.11-5.986 2.11-2.5 0-4.033-.452-5.493-1.624-.556-.445-1.083-.737-1.172-.648-.089.089-.13 2.72-.094 5.848l.068 5.685h-3.217zm11.892 3.05c2.13-1.087 3.337-3.348 3.632-6.805.285-3.35-.568-6.246-2.337-7.937-1.156-1.104-2.022-1.406-4.01-1.4-3.112.012-5.12 1.653-5.753 4.704-.429 2.063-.202 7.018.384 8.388.55 1.285 1.864 2.714 2.94 3.196 1.224.548 3.934.471 5.144-.146zm-88.858 2.5c-5.59-1.564-8.5-6.269-8.49-13.729.005-3.399.46-5.637 1.627-8.01 1.518-3.083 4.612-5.433 8.154-6.192 2.016-.433 7.98-.173 9.662.42.727.257 1.422.557 1.543.665.167.151-.598 2.106-1.012 2.586-.036.042-1.002-.239-2.147-.623-1.834-.615-2.398-.686-4.731-.591-3.08.124-4.348.59-6.281 2.31-4.545 4.04-4.818 13.926-.504 18.24 1.865 1.865 3.453 2.502 6.558 2.63 1.824.074 3.362-.028 4.79-.317 1.155-.234 2.179-.426 2.273-.426.095 0 .172.59.172 1.31 0 1.284-.02 1.318-.992 1.617-1.64.505-8.939.58-10.622.11zm18.77-.31c-1.97-1.035-2.747-2.502-2.745-5.19.003-2.157.408-3.177 1.697-4.262 1.756-1.478 4.766-2.233 8.987-2.257 1.595-.009 2.644-.13 2.844-.331.483-.483.369-2.852-.198-4.099-.365-.804-.813-1.267-1.632-1.685-1.52-.775-4.403-.63-6.79.343l-1.662.676-.389-.93c-.57-1.364-.503-1.546.736-2.01 2.215-.828 3.635-1.032 6.475-.931 3.493.123 4.832.716 5.89 2.607l.666 1.187.08 8.665.079 8.665h-1.062c-1.012 0-1.074-.048-1.343-1.047-.155-.576-.402-1.12-.548-1.211-.145-.09-.68.2-1.187.645-1.684 1.48-2.403 1.716-5.544 1.824-2.787.096-2.972.068-4.354-.658zm7.529-2.162c2.17-.988 3.567-3.242 3.57-5.758.003-1.644-.327-1.79-3.652-1.614-3.29.173-4.842.666-6.054 1.922-1.604 1.661-1.301 4.022.685 5.345 1.16.773 3.87.825 5.45.105zm79.125 2.494c-1.502-.555-2.306-1.227-3.058-2.553l-.661-1.167-.08-8.533-.08-8.533h2.902l.085 7.872c.082 7.731.094 7.889.705 8.871.866 1.394 2.256 2.043 4.373 2.043 2.107 0 3.714-.643 4.856-1.944 1.349-1.536 1.475-2.323 1.591-9.896l.107-6.946h2.871v20.902h-1.162c-1.228 0-1.484-.252-1.484-1.461 0-.982-.503-1.048-1.412-.186-1.538 1.46-2.425 1.75-5.6 1.837-2.065.056-3.212-.032-3.953-.306zm21.416-.008c-.727-.21-1.412-.387-1.521-.393-.173-.01-.305-2.923-.132-2.922.036 0 .72.262 1.521.583 1.21.486 1.99.586 4.641.596 3.55.013 4.199-.213 5.16-1.79.664-1.088.65-1.495-.086-2.591-.678-1.01-2.34-2.005-5.085-3.045a37.8 37.8 0 0 1-3.405-1.515c-2.495-1.305-3.45-3.336-2.816-5.98.4-1.67 1.785-2.993 3.74-3.574 2.58-.766 8.944-.358 10.16.652.32.266.299.462-.151 1.344-.29.568-.614 1.03-.72 1.029-.106-.003-.948-.24-1.87-.53-1.979-.62-5.2-.7-6.49-.16-1.054.44-2.02 1.6-2.02 2.428 0 .795 1.146 2.133 2.349 2.744.527.267 2.227.98 3.777 1.585 4.753 1.855 5.878 3.023 5.878 6.107 0 2.515-.847 3.892-3.14 5.103-.905.479-1.594.57-4.763.635-2.636.054-4.085-.034-5.027-.306zm-86.915-10.327v-10.45h1.293c1.266 0 1.297.018 1.466.916.094.504.28.984.413 1.066.133.082.786-.266 1.452-.774 1.505-1.149 2.635-1.47 5.165-1.47 2.73 0 3.817.363 5.334 1.781l1.295 1.212.853-.877c1.499-1.541 3.13-2.114 6.03-2.117 2.241-.003 2.698.081 3.97.725 1.239.628 1.545.946 2.23 2.315l.793 1.588.09 8.268.088 8.268h-3.198l-.077-8.05c-.074-7.691-.102-8.085-.631-8.798-1.031-1.39-2.14-1.938-3.917-1.931-2.014.007-3.544.668-4.526 1.956-1.208 1.583-1.446 3.289-1.45 10.407l-.005 6.416h-2.88l-.082-7.871c-.075-7.383-.114-7.929-.624-8.797-.886-1.508-2.037-2.117-4.002-2.117-2.071 0-3.144.424-4.244 1.676-1.465 1.668-1.661 2.9-1.661 10.41v6.7h-3.175zM-92.38 333.77c-3.367-1.7-4.86-5.398-4.517-11.19.263-4.453 1.914-7.484 4.812-8.833 1.106-.516 1.76-.62 3.846-.618 2.756.003 4.262.476 5.601 1.756.389.371.835.595.993.498.19-.118.286-1.994.286-5.585v-5.409h2.91v29.898h-1.187c-1.182 0-1.189-.005-1.358-1.064-.094-.585-.284-1.134-.423-1.22-.139-.086-.63.2-1.09.637-1.506 1.43-2.442 1.746-5.467 1.854-2.676.095-2.838.068-4.406-.724zm7.391-1.956c1.153-.482 2.737-2.292 3.088-3.527.483-1.698.623-4.876.304-6.92-.642-4.113-2.492-5.87-6.17-5.86-2.106.005-3.461.724-4.62 2.45-1.09 1.625-1.493 3.642-1.353 6.788.083 1.86.27 2.89.708 3.885.686 1.56 1.989 2.933 3.098 3.265 1.2.359 4.004.313 4.945-.08zm18.816 2.363c-2.55-.798-4.697-3.052-5.557-5.83-.585-1.895-.771-5.614-.38-7.61 1.009-5.15 4.054-7.616 9.404-7.616 3.212 0 5.026.633 6.739 2.353 2.07 2.079 2.912 4.533 2.912 8.495 0 6.98-3.298 10.61-9.595 10.565-1.34-.01-2.926-.17-3.523-.357zm6.055-2.364c1.39-.585 3.014-2.57 3.518-4.305.632-2.172.567-5.885-.135-7.76-.631-1.684-2.361-3.576-3.664-4.006-.493-.163-1.772-.252-2.842-.197-2.534.127-3.858.987-5.018 3.257-.767 1.5-.797 1.69-.795 5.016.003 3.228.05 3.546.703 4.78.762 1.44 1.759 2.481 2.999 3.134.996.524 4.066.572 5.234.08zm24.002 2.271-1.72-.458-.08-1.556c-.078-1.514-.064-1.551.53-1.379 3.397.987 4.751 1.215 7.2 1.212 2.259-.003 2.879-.1 4.032-.637 1.863-.867 2.738-2.174 2.738-4.086 0-2.64-1.323-3.855-6.35-5.831-6.15-2.418-7.634-4.042-7.66-8.38-.022-3.341 1.583-5.518 4.846-6.575 2.557-.828 9.658-.349 11.166.754.458.334.459.398.01 1.573-.257.674-.499 1.225-.537 1.225-.038 0-.772-.25-1.632-.556-2.225-.792-6.32-.992-7.906-.387-3.05 1.165-3.858 4.71-1.602 7.02.98 1.004 2.19 1.633 6.358 3.307 5.298 2.127 6.815 4.16 6.414 8.588-.25 2.749-1.537 4.472-4.297 5.753-1.493.693-1.832.741-5.689.804-3.217.053-4.471-.031-5.82-.39zm25.283.073c-1.49-.53-2.302-1.205-3.058-2.539l-.661-1.167-.08-8.533-.08-8.533h2.909l.08 7.872c.08 7.734.092 7.888.703 8.871.882 1.42 2.25 2.044 4.461 2.037 2.166-.007 3.574-.578 4.76-1.93 1.357-1.545 1.483-2.324 1.6-9.904l.106-6.946h2.871v20.931l-1.257-.08c-1.225-.079-1.259-.104-1.341-1.007-.13-1.408-.461-1.539-1.457-.573-1.375 1.332-3.196 1.898-6.068 1.884-1.397-.007-2.892-.17-3.488-.383zm20.755-14.819V304.39h3.175v29.898H9.922zm-112.126-30.554c-2.38-.564-4.918-3.178-5.774-5.946-.585-1.894-.771-5.613-.38-7.61 1.01-5.15 4.055-7.616 9.404-7.616 3.212 0 5.026.634 6.74 2.353 2.25 2.26 3.056 4.91 2.857 9.409-.115 2.614-.226 3.157-.957 4.687-1.655 3.47-4.311 5.003-8.584 4.956-1.34-.015-2.828-.12-3.306-.233zm5.838-2.48c1.105-.464 2.949-2.479 3.325-3.633.91-2.79.842-6.762-.153-8.998-.678-1.523-2.65-3.329-3.89-3.561-.525-.099-1.724-.13-2.664-.07-2.277.144-3.65 1.083-4.76 3.251-.766 1.5-.796 1.691-.794 5.017.003 3.228.05 3.546.703 4.78.762 1.44 1.759 2.48 2.999 3.133.996.525 4.066.572 5.234.082zm31.626 2.364c-2.16-.618-3.742-1.535-5.26-3.05-2.763-2.756-3.822-6.178-3.607-11.656.184-4.703 1.189-7.32 3.8-9.895 2.498-2.462 5.895-3.598 10.762-3.598 3.537 0 7.763.793 8.038 1.51.084.218-.093.903-.393 1.521l-.546 1.124-1.94-.687c-1.708-.605-2.355-.687-5.38-.689-3.215-.003-3.544.047-5.028.74-3.997 1.864-6.225 5.809-6.214 11.003.012 4.976 2.171 8.76 6.036 10.57 1.424.668 1.713.704 5.614.704 3.492 0 4.221-.07 4.829-.469l.715-.469v-4.042c0-2.79-.098-4.14-.317-4.36-.208-.207-1.305-.317-3.175-.317h-2.858v-2.381h9.26v13.677l-2.05.481c-2.68.63-10.447.808-12.286.283zm38.546-.378c-1.534-.902-2.15-1.827-2.522-3.789-.362-1.91.072-3.941 1.092-5.103 1.541-1.755 5.103-2.79 9.603-2.79 1.543 0 2.554-.116 2.755-.317.482-.483.368-2.852-.198-4.099-.365-.804-.814-1.267-1.632-1.685-1.52-.775-4.404-.63-6.79.342l-1.662.677-.39-.93c-.213-.513-.388-1.092-.388-1.288 0-.215.886-.632 2.241-1.054 1.99-.621 2.576-.688 5.226-.6 3.636.12 4.95.69 6.023 2.608l.665 1.187.08 8.68.08 8.682-1.13-.082c-1.043-.076-1.141-.148-1.307-.967-.29-1.427-.62-1.548-1.682-.615-1.734 1.523-2.4 1.737-5.698 1.833-2.965.086-3.077.068-4.366-.69zm7.673-2.121c2.17-.988 3.567-3.242 3.57-5.758.003-1.646-.326-1.791-3.644-1.608-3.4.189-5.056.708-6.123 1.923-1.531 1.744-1.212 4.034.746 5.338 1.16.772 3.87.825 5.451.105zm41.431 2.04c-3.207-1.673-4.384-4.324-4.387-9.881-.003-4.176.576-6.24 2.294-8.193 1.785-2.028 2.74-2.39 6.303-2.39 3.269 0 4.101.244 5.6 1.646.389.363.836.58.993.484.19-.118.286-1.994.286-5.586v-5.408h2.91v29.898h-1.187c-1.182 0-1.188-.005-1.358-1.064-.093-.585-.284-1.135-.423-1.22-.139-.086-.629.2-1.09.637-1.503 1.427-2.443 1.746-5.467 1.858-2.726.101-2.81.087-4.474-.781zm7.46-1.903c1.152-.483 2.736-2.292 3.088-3.528.8-2.81.547-7.793-.497-9.83-1.018-1.985-2.801-2.957-5.41-2.95-2.063.006-3.43.737-4.58 2.451-1.089 1.621-1.492 3.641-1.355 6.787.157 3.638 1.386 6.1 3.52 7.051 1.034.462 4.148.473 5.233.019zm18.338 2.083c-2.115-.87-3.266-1.861-4.273-3.68-1.439-2.598-1.847-6.477-1.04-9.895.778-3.3 2.339-5.373 4.92-6.532 1.5-.673 1.821-.72 4.302-.618 2.988.122 4.15.551 5.705 2.11 1.531 1.533 2.23 3.426 2.353 6.371l.108 2.58h-7.01c-8.183 0-7.897-.09-7.39 2.336.375 1.797 1.383 3.32 2.909 4.391 1.009.71 1.37.8 3.576.897 1.774.077 2.927-.02 4.162-.35 3.157-.844 2.898-.898 2.898.6 0 1.195-.07 1.35-.727 1.612-1.471.587-3.178.82-6.02.82-2.476 0-3.143-.096-4.473-.642zm8.575-12.18c.644-.774-.297-3.876-1.494-4.927-2.047-1.797-5.405-1.738-7.462.132-1.25 1.135-2.406 4.178-1.845 4.854.446.538 10.352.484 10.801-.058zm-199.232-1.453v-14.023h5.411c6.087 0 7.422.199 9.437 1.405 1.125.674 1.568 1.156 2.2 2.394.7 1.37.793 1.818.793 3.85 0 3.552-1.09 5.445-4.083 7.098-.509.282-.964.708-1.01.947-.047.24 1.41 2.924 3.237 5.965 1.827 3.04 3.396 5.722 3.486 5.958.142.37-.085.429-1.65.428h-1.814l-3.29-5.704c-1.809-3.137-3.498-5.816-3.752-5.952-.689-.369-5.09-.313-5.472.07-.228.227-.318 1.922-.318 5.953v5.635h-3.175v-14.023zm10.924-.812c1.175-.324 2.686-1.578 3.293-2.733.638-1.21.59-4.04-.088-5.2-.623-1.067-1.915-2.002-3.255-2.355-1.737-.457-6.847-.655-7.296-.282-.335.278-.403 1.188-.403 5.408 0 3.699.09 5.168.33 5.42.384.401 5.703.216 7.42-.258zm13.418 4.384v-10.451h3.175v20.902h-3.175zm73.818 0v-10.451h2.646v1.14c0 .627.168 1.37.374 1.651.357.488.422.456 1.45-.711 1.543-1.754 2.959-2.345 5.615-2.345h2.152l-.165.827c-.09.455-.165 1.05-.165 1.323 0 .437-.217.496-1.835.496-2.293 0-3.03.275-4.471 1.67-2.249 2.175-2.282 2.316-2.376 10.038l-.082 6.813h-3.143zm38.63 0v-10.451h2.578l.167 1.043c.226 1.419.587 1.546 1.598.566 1.324-1.283 3.193-1.874 5.931-1.874 3.79 0 5.602.916 6.758 3.415.53 1.144.567 1.705.642 9.484l.08 8.268H9.658l-.006-7.078c-.004-3.892-.115-7.544-.247-8.115-.293-1.261-.962-2.206-2.125-2.997-1.252-.852-4.388-.84-6.088.024-1.353.687-2.73 2.674-3.005 4.337-.09.548-.166 3.884-.167 7.413l-.003 6.416H-5.16zm-112.211-15.115c-.197-.236-.358-.876-.358-1.421 0-1.33.486-1.853 1.722-1.853 1.286 0 1.838.557 1.838 1.853 0 .575-.181 1.202-.415 1.436-.553.552-2.325.543-2.787-.015zm114.692-28.196c-2.295-3.667-4.387-6.882-4.65-7.144-.563-.563-3.346-.678-3.864-.16-.23.23-.317 2.158-.317 7.012v6.694h-7.673v-36.595l7.342.167c4.872.111 7.94.298 9.122.555 6.193 1.35 8.902 4.758 8.619 10.842-.178 3.81-1.63 6.35-4.72 8.257-.868.535-1.578 1.127-1.578 1.314 0 .525 9.741 14.787 10.163 14.879.204.044.442-.034.529-.174.134-.217 1.992-5.487 8.41-23.852a940.215 940.215 0 0 1 2.06-5.82 929.254 929.254 0 0 0 1.622-4.565l.627-1.785h9.326l.418 1.124c.801 2.153 3.993 11.187 9.98 28.244a894.616 894.616 0 0 0 1.952 5.524c.716 1.968.873 1.885-3.532 1.885-2.383 0-4.019-.107-4.118-.268-.091-.148-.4-1.07-.686-2.05-.287-.981-.764-2.617-1.06-3.636-.859-2.948-.389-2.778-7.68-2.778-6.251 0-6.306.005-6.67.596-.201.327-.886 2.351-1.522 4.498l-1.157 3.902H1.494Zm35.004-8.839c.09-.232-.463-2.405-1.228-4.828a533.188 533.188 0 0 1-2.121-6.872c-.75-2.532-1.153-3.262-1.549-2.812-.416.474-4.348 14.105-4.188 14.52.136.355.804.416 4.541.416 3.774 0 4.405-.059 4.545-.424zm-37.614-5.275c1.32-.363 2.635-1.442 3.272-2.684.163-.318.296-1.283.296-2.144 0-3.103-1.746-4.455-6.26-4.847-2.027-.176-2.906-.16-3.168.057-.498.414-.527 9.49-.031 9.985.402.403 3.883.186 5.891-.367zm-138.513 2.26v-18.257h20.902v6.086h-6.43c-4.647 0-6.517.088-6.746.317-.446.446-.446 8.974 0 9.42.228.227 1.981.317 6.217.317h5.9v5.82h-5.9c-4.236 0-5.99.09-6.217.318-.231.23-.318 2.217-.318 7.276v6.959h-7.408zm28.575 0v-18.257h20.902v6.086h-6.297c-4.545 0-6.385.088-6.615.317-.217.217-.317 1.5-.317 4.048 0 2.549.1 3.831.317 4.048.228.228 1.982.318 6.218.318h5.9v5.82h-5.9c-4.236 0-5.99.09-6.218.318-.445.445-.445 8.71 0 9.155.23.229 2.07.317 6.615.317h6.297v6.086h-20.902zm28.84 0v-18.257l5.357.004c9.582.007 13.038.534 16.958 2.581 3.653 1.908 6.535 5.872 7.45 10.247.52 2.487.511 8.059-.017 10.66-1.14 5.606-4.933 10.014-10.115 11.754-3.194 1.073-5.11 1.266-12.513 1.266h-7.12v-18.256zm15.549 11.332c3.723-1.142 6.15-4.432 6.738-9.13.574-4.584-.428-8.796-2.655-11.167-1.898-2.02-3.64-2.701-7.755-3.033-2.7-.218-3.453-.203-3.787.074-.369.306-.418 1.705-.418 11.903 0 8.89.077 11.634.331 11.892.466.473 5.391.121 7.546-.54zm22.55-11.333v-18.256h20.902v6.086h-6.296c-4.545 0-6.386.088-6.615.317-.217.217-.318 1.5-.318 4.048 0 2.549.101 3.831.318 4.048.228.228 1.981.318 6.218.318h5.9v5.82h-5.9c-4.237 0-5.99.09-6.218.318-.445.445-.445 8.71 0 9.155.23.229 2.07.317 6.615.317h6.297v6.086h-20.902zm98.69 0v-18.256h7.673v14.896c0 11.233.078 14.974.318 15.214.23.23 2.246.317 7.408.317h7.09v6.086H50.404Zm-158.149-27.122a26.275 26.275 0 0 1-3.175-.982l-1.527-.605-.074-3.505c-.06-2.852-.005-3.504.295-3.504.202 0 1.244.361 2.316.803 7.445 3.07 13.733 2.217 13.733-1.862 0-2.042-1.595-3.49-6.32-5.74-4.87-2.32-6.658-3.627-8.119-5.936-2.394-3.785-1.635-10.073 1.544-12.794 1.378-1.18 3.47-2.183 5.287-2.535 2.6-.504 6.956-.335 9.727.378 2.662.685 5.026 1.6 5.028 1.945.003.54-2.209 5.632-2.446 5.632-.149 0-1.356-.378-2.683-.84-3.274-1.14-6.676-1.345-8.33-.501-1.89.965-2.627 2.832-1.77 4.49.678 1.31 2.243 2.408 6.135 4.303 5.942 2.895 7.916 4.623 8.973 7.857.685 2.094.44 6.05-.486 7.87-1.306 2.566-3.077 4.05-6.163 5.167-1.311.474-2.275.58-5.931.65-3.094.06-4.846-.025-6.014-.291zm112.303-.015c-4.918-1.192-8.33-4.594-9.328-9.304-.299-1.412-.38-4.491-.384-14.557l-.004-12.766h7.408l.003 10.914c0 6.003.116 11.91.256 13.128.33 2.865 1.257 4.603 3.056 5.723 1.216.758 1.408.794 4.205.794 2.355 0 3.114-.097 3.858-.494 2.01-1.072 2.931-2.436 3.415-5.053.18-.977.289-5.948.289-13.287v-11.725h7.408l-.003 13.163c-.003 10.418-.08 13.452-.373 14.55-1.218 4.58-4.345 7.537-9.307 8.806-2.476.633-8.092.691-10.498.108zm69.722-.103c-2.549-.688-3.876-1.305-5.579-2.594-2.558-1.937-4.365-4.813-5.386-8.571-.809-2.976-.876-10.323-.125-13.529 1.449-6.175 5.19-10.056 11.159-11.574 2.667-.678 7.805-.747 10.72-.144 4.544.94 8.212 3.691 10.085 7.563 1.66 3.433 1.949 5.015 1.949 10.713 0 4.463-.068 5.264-.61 7.132-1.626 5.618-4.71 8.984-9.841 10.74-2.527.864-9.587 1.015-12.372.264zm8.957-6.263c.763-.25 1.873-.932 2.644-1.625 2.449-2.201 3.409-5.089 3.409-10.248 0-5.117-.93-7.953-3.352-10.219-1.792-1.676-3.394-2.176-6.523-2.037-2.056.092-2.634.224-3.838.882-3.435 1.875-5.055 5.522-5.055 11.374 0 3.088.508 5.781 1.458 7.722.855 1.748 2.968 3.67 4.58 4.167 1.695.521 5.06.513 6.677-.016zM-169.2 177.654v-18.256h7.673v36.512h-7.673zm16.933 0v-18.256h9.663l7.77 13.372c4.273 7.355 7.9 13.329 8.062 13.275.21-.07.268-3.827.205-13.372l-.089-13.275h6.933v36.524l-5.05-.072-5.05-.072-7.62-13.23c-4.19-7.275-7.776-13.228-7.968-13.228-.285 0-.334 2.429-.271 13.295l.078 13.295h-6.662zm76.994 3.493c0-11.13-.078-14.842-.317-15.082-.224-.223-1.717-.317-5.028-.317h-4.71v-6.35h27.782v6.35h-4.71c-3.31 0-4.803.094-5.027.317-.239.24-.317 3.951-.317 15.082v14.763h-7.673zm23.548-3.493v-18.256h7.673v36.512h-7.673zm23.283 3.493c0-11.13-.078-14.842-.317-15.082-.223-.223-1.717-.317-5.027-.317h-4.71v-6.35h27.781v6.35h-4.71c-3.31 0-4.803.094-5.026.317-.24.24-.318 3.951-.318 15.082v14.763h-7.673zm69.057 0c0-11.13-.079-14.842-.318-15.082-.223-.223-1.717-.317-5.027-.317h-4.71v-6.35h27.78v6.35h-4.709c-3.31 0-4.804.094-5.027.317-.24.24-.318 3.951-.318 15.082v14.763h-7.672ZM-85.18-3.875c-8.442-1.141-15.443-7.541-17.52-16.015-.644-2.631-.584-7.55.125-10.192 1.69-6.3 6.424-11.675 12.431-14.116 3.984-1.62 10.013-1.904 13.944-.659 6.966 2.206 12.223 7.541 14.206 14.416.517 1.792.608 2.706.596 5.953-.014 3.619-.063 3.98-.875 6.35C-65.16-9.715-72.225-4.32-81.095-3.767c-1.237.077-3.075.028-4.085-.108z" transform="translate(43.9 10.607) scale(.23076)"/><path style="fill:#2b2729;stroke-width:4.33342838" d="M26.274 446.114c-2.941-.824-4.303-2.526-4.286-5.359.012-2.036.605-3.113 2.364-4.293 1.542-1.035 1.65-1.232 1.044-1.902-1.053-1.163-.73-3.628.638-4.866.75-.679.701-1.076-.214-1.728-2.701-1.923-2.9-7.738-.356-10.4.382-.4 1.358-.975 2.168-1.278 1.402-.525 1.78-.542 7.888-.361l6.416.19v1.737l-1.723.184c-.948.102-1.777.271-1.842.377-.066.106.127.836.428 1.622.777 2.033.588 4.54-.474 6.264-1.206 1.959-2.937 2.764-6.352 2.954-2.541.141-2.751.197-3.523.936-.961.922-1.226 1.728-.817 2.49.507.95 1.26 1.122 5.789 1.327 3.744.17 4.58.287 5.513.768 2.132 1.1 3.01 3.222 2.491 6.026-.464 2.512-1.633 3.779-4.554 4.937-1.178.466-2.09.575-5.387.643-2.705.055-4.364-.03-5.211-.268zm9.836-2.962c3.125-1.687 3.458-4.7.678-6.137-1.195-.618-8.426-.622-9.57-.006-3.324 1.79-3.108 5.709.376 6.834.394.127 2.145.2 3.891.16 2.946-.064 3.28-.126 4.625-.852zm-1.82-16.593c.495-.329 1.176-1.133 1.514-1.786 1.06-2.052.447-4.84-1.361-6.188-.62-.462-1.124-.557-2.958-.557-2.376 0-3.079.298-4.18 1.772-1.045 1.4-.912 4.384.257 5.774.942 1.12 2.029 1.535 4.083 1.56 1.395.018 1.927-.098 2.646-.575zm-151.792 10.276c-2.55-.798-4.697-3.051-5.557-5.83-.586-1.894-.772-5.614-.38-7.61 1.009-5.15 4.054-7.616 9.404-7.616 3.212 0 5.025.633 6.74 2.353 2.23 2.238 3.067 4.974 2.855 9.327-.174 3.572-.838 5.364-2.685 7.245-1.85 1.886-3.576 2.512-6.854 2.489-1.34-.01-2.926-.171-3.523-.358zm6.055-2.364c1.104-.464 2.949-2.48 3.325-3.633.91-2.79.842-6.762-.153-8.998-.616-1.385-1.975-2.782-3.213-3.304-1.372-.578-4.046-.482-5.49.196-2.55 1.199-3.676 3.918-3.484 8.404.1 2.34.232 3.015.801 4.121.738 1.433 1.729 2.475 2.98 3.133.996.524 4.066.572 5.234.081zm32.186 2.126c-.847-.448-1.34-.962-1.827-1.91-.66-1.28-.67-1.395-.757-8.581-.055-4.506-.193-7.41-.363-7.615-.151-.182-.796-.33-1.433-.33-1.065 0-1.158-.055-1.158-.677 0-.564.239-.781 1.445-1.315l1.446-.64.56-1.925c.31-1.06.608-2.075.664-2.257.056-.183.52-.33 1.036-.33h.934v2.196c0 1.355.122 2.317.318 2.513.206.206 1.276.318 3.043.318h2.725v2.116h-2.725c-1.767 0-2.837.112-3.043.318-.23.23-.317 2.171-.317 7.077 0 6.234.042 6.826.517 7.606.874 1.433 1.598 1.74 3.846 1.626l1.986-.1v1.098c0 1.333-.204 1.416-3.464 1.422-1.872.003-2.478-.105-3.433-.61zm16.263.252c-2.575-.839-4.7-3.073-5.557-5.844-.227-.735-.479-2.373-.56-3.641-.33-5.191 1.35-8.942 4.804-10.733 1.154-.598 1.745-.71 4.25-.797 3.655-.129 5.4.423 7.27 2.298 2.23 2.238 3.068 4.974 2.855 9.327-.218 4.48-1.745 7.308-4.8 8.892-1.187.615-1.717.712-4.266.777-1.904.049-3.286-.048-3.996-.28zm6.055-2.378c.468-.197 1.351-.902 1.962-1.567 1.442-1.569 2.004-3.45 1.99-6.66-.014-3.183-.658-4.937-2.417-6.583-1.455-1.36-2.327-1.618-4.917-1.453-2.277.145-3.65 1.084-4.76 3.252-.766 1.5-.796 1.691-.794 5.017.003 3.227.05 3.545.703 4.78.762 1.44 1.759 2.48 2.999 3.133.996.524 4.066.572 5.234.081zm64.178 2.387c-4.301-1.61-6.316-4.905-6.305-10.31.01-4.969 1.905-8.568 5.316-10.099 1.5-.673 1.821-.72 4.302-.618 2.991.122 4.161.555 5.696 2.11 1.627 1.649 2.215 3.206 2.354 6.239l.124 2.712H11.71c-8.189 0-7.902-.091-7.395 2.336.375 1.797 1.383 3.319 2.909 4.391 1.01.71 1.371.8 3.576.896 1.775.078 2.927-.019 4.162-.349 3.156-.844 2.898-.897 2.898.592 0 1.296-.015 1.32-1.124 1.78-1.524.634-8.074.854-9.5.32zm7.98-12.481c.643-.775-.298-3.878-1.495-4.928-2.12-1.86-5.817-1.697-7.67.34-1.24 1.36-2.185 3.986-1.663 4.614.47.567 10.356.542 10.828-.026zm52.278 12.193c-2.126-.895-3.27-1.884-4.273-3.694-1.438-2.598-1.846-6.477-1.04-9.895.778-3.301 2.34-5.374 4.92-6.532 1.501-.673 1.822-.72 4.303-.618 2.988.121 4.149.55 5.705 2.11 1.53 1.533 2.23 3.426 2.353 6.37l.108 2.58h-7.01c-8.184 0-7.898-.09-7.39 2.337.374 1.797 1.383 3.319 2.908 4.391 1.01.71 1.371.8 3.577.896 1.774.078 2.926-.019 4.161-.349 3.158-.845 2.899-.899 2.899.607v1.33l-1.257.457c-.88.32-2.327.49-4.829.563-3.337.098-3.675.062-5.135-.553zm8.576-12.193c.643-.775-.298-3.878-1.494-4.928-2.12-1.86-5.818-1.697-7.672.34-1.238 1.36-2.184 3.986-1.662 4.614.47.567 10.356.542 10.828-.026zm-222.516-1.454V408.9h5.236c5.792 0 7.518.277 9.574 1.537 3.984 2.443 4.18 10.253.332 13.189-2.01 1.532-3.74 2.013-7.734 2.146-1.964.065-3.72.24-3.902.387-.245.198-.33 1.64-.33 5.527v5.26h-3.176zm10.577-.178c2.035-.563 3.533-2.092 3.946-4.026.726-3.404-.966-6.171-4.204-6.879-2.213-.483-6.302-.664-6.743-.298-.335.278-.4 1.238-.4 5.804 0 4.023.087 5.56.33 5.804.427.43 5.004.168 7.07-.405zm37.313 3.75v-10.451h2.646v1.14c0 .627.168 1.37.373 1.65.357.489.423.456 1.45-.71 1.543-1.754 2.959-2.345 5.615-2.345h2.153l-.166.827c-.09.455-.165 1.05-.165 1.323 0 .437-.217.496-1.835.496-2.293 0-3.03.275-4.47 1.669-2.25 2.176-2.283 2.317-2.376 10.039l-.083 6.813h-3.142zm61.912 10.326c0-.07 1.731-4.504 3.846-9.856 2.116-5.352 4.586-11.61 5.49-13.905l1.644-4.175 1.445.074 1.445.073 2.34 5.953c1.288 3.275 3.637 9.24 5.222 13.257 1.584 4.018 2.96 7.62 3.056 8.004.175.697.17.7-1.38.7h-1.557l-1.656-4.209c-.911-2.314-1.816-4.34-2.012-4.503-.243-.201-2.069-.272-5.746-.224l-5.39.072-.46.926c-.253.51-1.074 2.504-1.825 4.432l-1.364 3.506h-1.55c-.85 0-1.548-.057-1.548-.125zm16.634-11.607c.224-.27-.184-1.647-1.702-5.755a859.523 859.523 0 0 1-2.106-5.73c-.173-.523-.643-.387-.915.264-1.245 2.977-3.984 10.902-3.87 11.199.205.533 8.151.554 8.593.022zm11.941-3.217v-14.95h3.175v29.899H-8.07zm54.504 4.498v-10.451h2.646v1.14c0 .627.168 1.37.374 1.65.357.489.422.456 1.45-.71 1.543-1.754 2.959-2.345 5.615-2.345h2.152l-.165.827c-.091.455-.165 1.05-.165 1.323 0 .437-.218.496-1.835.496-2.293 0-3.03.275-4.471 1.669-2.249 2.176-2.282 2.317-2.376 10.039l-.082 6.813h-3.143Zm-76.2-39.423v-15.214h2.579l.166 1.043c.226 1.412.587 1.546 1.578.59 1.45-1.402 2.903-1.885 5.682-1.892 2.101-.005 2.674.094 3.895.672.788.372 1.851 1.167 2.363 1.765 3.404 3.977 3.2 13.31-.369 16.878-1.565 1.566-3.11 2.11-5.986 2.11-2.5 0-4.033-.452-5.493-1.624-.556-.445-1.083-.737-1.172-.648-.089.089-.13 2.72-.094 5.848l.068 5.685h-3.217zm11.892 3.05c2.13-1.087 3.337-3.348 3.632-6.805.285-3.35-.568-6.246-2.337-7.937-1.156-1.104-2.022-1.406-4.01-1.4-3.112.012-5.12 1.653-5.753 4.704-.429 2.063-.202 7.018.384 8.388.55 1.285 1.864 2.714 2.94 3.196 1.224.548 3.934.471 5.144-.146zm-88.858 2.5c-5.59-1.564-8.5-6.269-8.49-13.729.005-3.399.46-5.637 1.627-8.01 1.518-3.083 4.612-5.433 8.154-6.192 2.016-.433 7.98-.173 9.662.42.727.257 1.422.557 1.543.665.167.151-.598 2.106-1.012 2.586-.036.042-1.002-.239-2.147-.623-1.834-.615-2.398-.686-4.731-.591-3.08.124-4.348.59-6.281 2.31-4.545 4.04-4.818 13.926-.504 18.24 1.865 1.865 3.453 2.502 6.558 2.63 1.824.074 3.362-.028 4.79-.317 1.155-.234 2.179-.426 2.273-.426.095 0 .172.59.172 1.31 0 1.284-.02 1.318-.992 1.617-1.64.505-8.939.58-10.622.11zm18.77-.31c-1.97-1.035-2.747-2.502-2.745-5.19.003-2.157.408-3.177 1.697-4.262 1.756-1.478 4.766-2.233 8.987-2.257 1.595-.009 2.644-.13 2.844-.331.483-.483.369-2.852-.198-4.099-.365-.804-.813-1.267-1.632-1.685-1.52-.775-4.403-.63-6.79.343l-1.662.676-.389-.93c-.57-1.364-.503-1.546.736-2.01 2.215-.828 3.635-1.032 6.475-.931 3.493.123 4.832.716 5.89 2.607l.666 1.187.08 8.665.079 8.665h-1.062c-1.012 0-1.074-.048-1.343-1.047-.155-.576-.402-1.12-.548-1.211-.145-.09-.68.2-1.187.645-1.684 1.48-2.403 1.716-5.544 1.824-2.787.096-2.972.068-4.354-.658zm7.529-2.162c2.17-.988 3.567-3.242 3.57-5.758.003-1.644-.327-1.79-3.652-1.614-3.29.173-4.842.666-6.054 1.922-1.604 1.661-1.301 4.022.685 5.345 1.16.773 3.87.825 5.45.105zm79.125 2.494c-1.502-.555-2.306-1.227-3.058-2.553l-.661-1.167-.08-8.533-.08-8.533h2.902l.085 7.872c.082 7.731.094 7.889.705 8.871.866 1.394 2.256 2.043 4.373 2.043 2.107 0 3.714-.643 4.856-1.944 1.349-1.536 1.475-2.323 1.591-9.896l.107-6.946h2.871v20.902h-1.162c-1.228 0-1.484-.252-1.484-1.461 0-.982-.503-1.048-1.412-.186-1.538 1.46-2.425 1.75-5.6 1.837-2.065.056-3.212-.032-3.953-.306zm21.416-.008c-.727-.21-1.412-.387-1.521-.393-.173-.01-.305-2.923-.132-2.922.036 0 .72.262 1.521.583 1.21.486 1.99.586 4.641.596 3.55.013 4.199-.213 5.16-1.79.664-1.088.65-1.495-.086-2.591-.678-1.01-2.34-2.005-5.085-3.045a37.8 37.8 0 0 1-3.405-1.515c-2.495-1.305-3.45-3.336-2.816-5.98.4-1.67 1.785-2.993 3.74-3.574 2.58-.766 8.944-.358 10.16.652.32.266.299.462-.151 1.344-.29.568-.614 1.03-.72 1.029-.106-.003-.948-.24-1.87-.53-1.979-.62-5.2-.7-6.49-.16-1.054.44-2.02 1.6-2.02 2.428 0 .795 1.146 2.133 2.349 2.744.527.267 2.227.98 3.777 1.585 4.753 1.855 5.878 3.023 5.878 6.107 0 2.515-.847 3.892-3.14 5.103-.905.479-1.594.57-4.763.635-2.636.054-4.085-.034-5.027-.306zm-86.915-10.327v-10.45h1.293c1.266 0 1.297.018 1.466.916.094.504.28.984.413 1.066.133.082.786-.266 1.452-.774 1.505-1.149 2.635-1.47 5.165-1.47 2.73 0 3.817.363 5.334 1.781l1.295 1.212.853-.877c1.499-1.541 3.13-2.114 6.03-2.117 2.241-.003 2.698.081 3.97.725 1.239.628 1.545.946 2.23 2.315l.793 1.588.09 8.268.088 8.268h-3.198l-.077-8.05c-.074-7.691-.102-8.085-.631-8.798-1.031-1.39-2.14-1.938-3.917-1.931-2.014.007-3.544.668-4.526 1.956-1.208 1.583-1.446 3.289-1.45 10.407l-.005 6.416h-2.88l-.082-7.871c-.075-7.383-.114-7.929-.624-8.797-.886-1.508-2.037-2.117-4.002-2.117-2.071 0-3.144.424-4.244 1.676-1.465 1.668-1.661 2.9-1.661 10.41v6.7h-3.175zM-92.38 333.77c-3.367-1.7-4.86-5.398-4.517-11.19.263-4.453 1.914-7.484 4.812-8.833 1.106-.516 1.76-.62 3.846-.618 2.756.003 4.262.476 5.601 1.756.389.371.835.595.993.498.19-.118.286-1.994.286-5.585v-5.409h2.91v29.898h-1.187c-1.182 0-1.189-.005-1.358-1.064-.094-.585-.284-1.134-.423-1.22-.139-.086-.63.2-1.09.637-1.506 1.43-2.442 1.746-5.467 1.854-2.676.095-2.838.068-4.406-.724zm7.391-1.956c1.153-.482 2.737-2.292 3.088-3.527.483-1.698.623-4.876.304-6.92-.642-4.113-2.492-5.87-6.17-5.86-2.106.005-3.461.724-4.62 2.45-1.09 1.625-1.493 3.642-1.353 6.788.083 1.86.27 2.89.708 3.885.686 1.56 1.989 2.933 3.098 3.265 1.2.359 4.004.313 4.945-.08zm18.816 2.363c-2.55-.798-4.697-3.052-5.557-5.83-.585-1.895-.771-5.614-.38-7.61 1.009-5.15 4.054-7.616 9.404-7.616 3.212 0 5.026.633 6.739 2.353 2.07 2.079 2.912 4.533 2.912 8.495 0 6.98-3.298 10.61-9.595 10.565-1.34-.01-2.926-.17-3.523-.357zm6.055-2.364c1.39-.585 3.014-2.57 3.518-4.305.632-2.172.567-5.885-.135-7.76-.631-1.684-2.361-3.576-3.664-4.006-.493-.163-1.772-.252-2.842-.197-2.534.127-3.858.987-5.018 3.257-.767 1.5-.797 1.69-.795 5.016.003 3.228.05 3.546.703 4.78.762 1.44 1.759 2.481 2.999 3.134.996.524 4.066.572 5.234.08zm24.002 2.271-1.72-.458-.08-1.556c-.078-1.514-.064-1.551.53-1.379 3.397.987 4.751 1.215 7.2 1.212 2.259-.003 2.879-.1 4.032-.637 1.863-.867 2.738-2.174 2.738-4.086 0-2.64-1.323-3.855-6.35-5.831-6.15-2.418-7.634-4.042-7.66-8.38-.022-3.341 1.583-5.518 4.846-6.575 2.557-.828 9.658-.349 11.166.754.458.334.459.398.01 1.573-.257.674-.499 1.225-.537 1.225-.038 0-.772-.25-1.632-.556-2.225-.792-6.32-.992-7.906-.387-3.05 1.165-3.858 4.71-1.602 7.02.98 1.004 2.19 1.633 6.358 3.307 5.298 2.127 6.815 4.16 6.414 8.588-.25 2.749-1.537 4.472-4.297 5.753-1.493.693-1.832.741-5.689.804-3.217.053-4.471-.031-5.82-.39zm25.283.073c-1.49-.53-2.302-1.205-3.058-2.539l-.661-1.167-.08-8.533-.08-8.533h2.909l.08 7.872c.08 7.734.092 7.888.703 8.871.882 1.42 2.25 2.044 4.461 2.037 2.166-.007 3.574-.578 4.76-1.93 1.357-1.545 1.483-2.324 1.6-9.904l.106-6.946h2.871v20.931l-1.257-.08c-1.225-.079-1.259-.104-1.341-1.007-.13-1.408-.461-1.539-1.457-.573-1.375 1.332-3.196 1.898-6.068 1.884-1.397-.007-2.892-.17-3.488-.383zm20.755-14.819V304.39h3.175v29.898H9.922zm-112.126-30.554c-2.38-.564-4.918-3.178-5.774-5.946-.585-1.894-.771-5.613-.38-7.61 1.01-5.15 4.055-7.616 9.404-7.616 3.212 0 5.026.634 6.74 2.353 2.25 2.26 3.056 4.91 2.857 9.409-.115 2.614-.226 3.157-.957 4.687-1.655 3.47-4.311 5.003-8.584 4.956-1.34-.015-2.828-.12-3.306-.233zm5.838-2.48c1.105-.464 2.949-2.479 3.325-3.633.91-2.79.842-6.762-.153-8.998-.678-1.523-2.65-3.329-3.89-3.561-.525-.099-1.724-.13-2.664-.07-2.277.144-3.65 1.083-4.76 3.251-.766 1.5-.796 1.691-.794 5.017.003 3.228.05 3.546.703 4.78.762 1.44 1.759 2.48 2.999 3.133.996.525 4.066.572 5.234.082zm31.626 2.364c-2.16-.618-3.742-1.535-5.26-3.05-2.763-2.756-3.822-6.178-3.607-11.656.184-4.703 1.189-7.32 3.8-9.895 2.498-2.462 5.895-3.598 10.762-3.598 3.537 0 7.763.793 8.038 1.51.084.218-.093.903-.393 1.521l-.546 1.124-1.94-.687c-1.708-.605-2.355-.687-5.38-.689-3.215-.003-3.544.047-5.028.74-3.997 1.864-6.225 5.809-6.214 11.003.012 4.976 2.171 8.76 6.036 10.57 1.424.668 1.713.704 5.614.704 3.492 0 4.221-.07 4.829-.469l.715-.469v-4.042c0-2.79-.098-4.14-.317-4.36-.208-.207-1.305-.317-3.175-.317h-2.858v-2.381h9.26v13.677l-2.05.481c-2.68.63-10.447.808-12.286.283zm38.546-.378c-1.534-.902-2.15-1.827-2.522-3.789-.362-1.91.072-3.941 1.092-5.103 1.541-1.755 5.103-2.79 9.603-2.79 1.543 0 2.554-.116 2.755-.317.482-.483.368-2.852-.198-4.099-.365-.804-.814-1.267-1.632-1.685-1.52-.775-4.404-.63-6.79.342l-1.662.677-.39-.93c-.213-.513-.388-1.092-.388-1.288 0-.215.886-.632 2.241-1.054 1.99-.621 2.576-.688 5.226-.6 3.636.12 4.95.69 6.023 2.608l.665 1.187.08 8.68.08 8.682-1.13-.082c-1.043-.076-1.141-.148-1.307-.967-.29-1.427-.62-1.548-1.682-.615-1.734 1.523-2.4 1.737-5.698 1.833-2.965.086-3.077.068-4.366-.69zm7.673-2.121c2.17-.988 3.567-3.242 3.57-5.758.003-1.646-.326-1.791-3.644-1.608-3.4.189-5.056.708-6.123 1.923-1.531 1.744-1.212 4.034.746 5.338 1.16.772 3.87.825 5.451.105zm41.431 2.04c-3.207-1.673-4.384-4.324-4.387-9.881-.003-4.176.576-6.24 2.294-8.193 1.785-2.028 2.74-2.39 6.303-2.39 3.269 0 4.101.244 5.6 1.646.389.363.836.58.993.484.19-.118.286-1.994.286-5.586v-5.408h2.91v29.898h-1.187c-1.182 0-1.188-.005-1.358-1.064-.093-.585-.284-1.135-.423-1.22-.139-.086-.629.2-1.09.637-1.503 1.427-2.443 1.746-5.467 1.858-2.726.101-2.81.087-4.474-.781zm7.46-1.903c1.152-.483 2.736-2.292 3.088-3.528.8-2.81.547-7.793-.497-9.83-1.018-1.985-2.801-2.957-5.41-2.95-2.063.006-3.43.737-4.58 2.451-1.089 1.621-1.492 3.641-1.355 6.787.157 3.638 1.386 6.1 3.52 7.051 1.034.462 4.148.473 5.233.019zm18.338 2.083c-2.115-.87-3.266-1.861-4.273-3.68-1.439-2.598-1.847-6.477-1.04-9.895.778-3.3 2.339-5.373 4.92-6.532 1.5-.673 1.821-.72 4.302-.618 2.988.122 4.15.551 5.705 2.11 1.531 1.533 2.23 3.426 2.353 6.371l.108 2.58h-7.01c-8.183 0-7.897-.09-7.39 2.336.375 1.797 1.383 3.32 2.909 4.391 1.009.71 1.37.8 3.576.897 1.774.077 2.927-.02 4.162-.35 3.157-.844 2.898-.898 2.898.6 0 1.195-.07 1.35-.727 1.612-1.471.587-3.178.82-6.02.82-2.476 0-3.143-.096-4.473-.642zm8.575-12.18c.644-.774-.297-3.876-1.494-4.927-2.047-1.797-5.405-1.738-7.462.132-1.25 1.135-2.406 4.178-1.845 4.854.446.538 10.352.484 10.801-.058zm-199.232-1.453v-14.023h5.411c6.087 0 7.422.199 9.437 1.405 1.125.674 1.568 1.156 2.2 2.394.7 1.37.793 1.818.793 3.85 0 3.552-1.09 5.445-4.083 7.098-.509.282-.964.708-1.01.947-.047.24 1.41 2.924 3.237 5.965 1.827 3.04 3.396 5.722 3.486 5.958.142.37-.085.429-1.65.428h-1.814l-3.29-5.704c-1.809-3.137-3.498-5.816-3.752-5.952-.689-.369-5.09-.313-5.472.07-.228.227-.318 1.922-.318 5.953v5.635h-3.175v-14.023zm10.924-.812c1.175-.324 2.686-1.578 3.293-2.733.638-1.21.59-4.04-.088-5.2-.623-1.067-1.915-2.002-3.255-2.355-1.737-.457-6.847-.655-7.296-.282-.335.278-.403 1.188-.403 5.408 0 3.699.09 5.168.33 5.42.384.401 5.703.216 7.42-.258zm13.418 4.384v-10.451h3.175v20.902h-3.175zm73.818 0v-10.451h2.646v1.14c0 .627.168 1.37.374 1.651.357.488.422.456 1.45-.711 1.543-1.754 2.959-2.345 5.615-2.345h2.152l-.165.827c-.09.455-.165 1.05-.165 1.323 0 .437-.217.496-1.835.496-2.293 0-3.03.275-4.471 1.67-2.249 2.175-2.282 2.316-2.376 10.038l-.082 6.813h-3.143zm38.63 0v-10.451h2.578l.167 1.043c.226 1.419.587 1.546 1.598.566 1.324-1.283 3.193-1.874 5.931-1.874 3.79 0 5.602.916 6.758 3.415.53 1.144.567 1.705.642 9.484l.08 8.268H9.658l-.006-7.078c-.004-3.892-.115-7.544-.247-8.115-.293-1.261-.962-2.206-2.125-2.997-1.252-.852-4.388-.84-6.088.024-1.353.687-2.73 2.674-3.005 4.337-.09.548-.166 3.884-.167 7.413l-.003 6.416H-5.16zm-112.211-15.115c-.197-.236-.358-.876-.358-1.421 0-1.33.486-1.853 1.722-1.853 1.286 0 1.838.557 1.838 1.853 0 .575-.181 1.202-.415 1.436-.553.552-2.325.543-2.787-.015zm114.692-28.196c-2.295-3.667-4.387-6.882-4.65-7.144-.563-.563-3.346-.678-3.864-.16-.23.23-.317 2.158-.317 7.012v6.694h-7.673v-36.595l7.342.167c4.872.111 7.94.298 9.122.555 6.193 1.35 8.902 4.758 8.619 10.842-.178 3.81-1.63 6.35-4.72 8.257-.868.535-1.578 1.127-1.578 1.314 0 .525 9.741 14.787 10.163 14.879.204.044.442-.034.529-.174.134-.217 1.992-5.487 8.41-23.852a940.215 940.215 0 0 1 2.06-5.82 929.254 929.254 0 0 0 1.622-4.565l.627-1.785h9.326l.418 1.124c.801 2.153 3.993 11.187 9.98 28.244a894.616 894.616 0 0 0 1.952 5.524c.716 1.968.873 1.885-3.532 1.885-2.383 0-4.019-.107-4.118-.268-.091-.148-.4-1.07-.686-2.05-.287-.981-.764-2.617-1.06-3.636-.859-2.948-.389-2.778-7.68-2.778-6.251 0-6.306.005-6.67.596-.201.327-.886 2.351-1.522 4.498l-1.157 3.902H1.494Zm35.004-8.839c.09-.232-.463-2.405-1.228-4.828a533.188 533.188 0 0 1-2.121-6.872c-.75-2.532-1.153-3.262-1.549-2.812-.416.474-4.348 14.105-4.188 14.52.136.355.804.416 4.541.416 3.774 0 4.405-.059 4.545-.424zm-37.614-5.275c1.32-.363 2.635-1.442 3.272-2.684.163-.318.296-1.283.296-2.144 0-3.103-1.746-4.455-6.26-4.847-2.027-.176-2.906-.16-3.168.057-.498.414-.527 9.49-.031 9.985.402.403 3.883.186 5.891-.367zm-138.513 2.26v-18.257h20.902v6.086h-6.43c-4.647 0-6.517.088-6.746.317-.446.446-.446 8.974 0 9.42.228.227 1.981.317 6.217.317h5.9v5.82h-5.9c-4.236 0-5.99.09-6.217.318-.231.23-.318 2.217-.318 7.276v6.959h-7.408zm28.575 0v-18.257h20.902v6.086h-6.297c-4.545 0-6.385.088-6.615.317-.217.217-.317 1.5-.317 4.048 0 2.549.1 3.831.317 4.048.228.228 1.982.318 6.218.318h5.9v5.82h-5.9c-4.236 0-5.99.09-6.218.318-.445.445-.445 8.71 0 9.155.23.229 2.07.317 6.615.317h6.297v6.086h-20.902zm28.84 0v-18.257l5.357.004c9.582.007 13.038.534 16.958 2.581 3.653 1.908 6.535 5.872 7.45 10.247.52 2.487.511 8.059-.017 10.66-1.14 5.606-4.933 10.014-10.115 11.754-3.194 1.073-5.11 1.266-12.513 1.266h-7.12v-18.256zm15.549 11.332c3.723-1.142 6.15-4.432 6.738-9.13.574-4.584-.428-8.796-2.655-11.167-1.898-2.02-3.64-2.701-7.755-3.033-2.7-.218-3.453-.203-3.787.074-.369.306-.418 1.705-.418 11.903 0 8.89.077 11.634.331 11.892.466.473 5.391.121 7.546-.54zm22.55-11.333v-18.256h20.902v6.086h-6.296c-4.545 0-6.386.088-6.615.317-.217.217-.318 1.5-.318 4.048 0 2.549.101 3.831.318 4.048.228.228 1.981.318 6.218.318h5.9v5.82h-5.9c-4.237 0-5.99.09-6.218.318-.445.445-.445 8.71 0 9.155.23.229 2.07.317 6.615.317h6.297v6.086h-20.902zm98.69 0v-18.256h7.673v14.896c0 11.233.078 14.974.318 15.214.23.23 2.246.317 7.408.317h7.09v6.086H50.404Zm-158.149-27.122a26.275 26.275 0 0 1-3.175-.982l-1.527-.605-.074-3.505c-.06-2.852-.005-3.504.295-3.504.202 0 1.244.361 2.316.803 7.445 3.07 13.733 2.217 13.733-1.862 0-2.042-1.595-3.49-6.32-5.74-4.87-2.32-6.658-3.627-8.119-5.936-2.394-3.785-1.635-10.073 1.544-12.794 1.378-1.18 3.47-2.183 5.287-2.535 2.6-.504 6.956-.335 9.727.378 2.662.685 5.026 1.6 5.028 1.945.003.54-2.209 5.632-2.446 5.632-.149 0-1.356-.378-2.683-.84-3.274-1.14-6.676-1.345-8.33-.501-1.89.965-2.627 2.832-1.77 4.49.678 1.31 2.243 2.408 6.135 4.303 5.942 2.895 7.916 4.623 8.973 7.857.685 2.094.44 6.05-.486 7.87-1.306 2.566-3.077 4.05-6.163 5.167-1.311.474-2.275.58-5.931.65-3.094.06-4.846-.025-6.014-.291zm112.303-.015c-4.918-1.192-8.33-4.594-9.328-9.304-.299-1.412-.38-4.491-.384-14.557l-.004-12.766h7.408l.003 10.914c0 6.003.116 11.91.256 13.128.33 2.865 1.257 4.603 3.056 5.723 1.216.758 1.408.794 4.205.794 2.355 0 3.114-.097 3.858-.494 2.01-1.072 2.931-2.436 3.415-5.053.18-.977.289-5.948.289-13.287v-11.725h7.408l-.003 13.163c-.003 10.418-.08 13.452-.373 14.55-1.218 4.58-4.345 7.537-9.307 8.806-2.476.633-8.092.691-10.498.108zm69.722-.103c-2.549-.688-3.876-1.305-5.579-2.594-2.558-1.937-4.365-4.813-5.386-8.571-.809-2.976-.876-10.323-.125-13.529 1.449-6.175 5.19-10.056 11.159-11.574 2.667-.678 7.805-.747 10.72-.144 4.544.94 8.212 3.691 10.085 7.563 1.66 3.433 1.949 5.015 1.949 10.713 0 4.463-.068 5.264-.61 7.132-1.626 5.618-4.71 8.984-9.841 10.74-2.527.864-9.587 1.015-12.372.264zm8.957-6.263c.763-.25 1.873-.932 2.644-1.625 2.449-2.201 3.409-5.089 3.409-10.248 0-5.117-.93-7.953-3.352-10.219-1.792-1.676-3.394-2.176-6.523-2.037-2.056.092-2.634.224-3.838.882-3.435 1.875-5.055 5.522-5.055 11.374 0 3.088.508 5.781 1.458 7.722.855 1.748 2.968 3.67 4.58 4.167 1.695.521 5.06.513 6.677-.016zM-169.2 177.654v-18.256h7.673v36.512h-7.673zm16.933 0v-18.256h9.663l7.77 13.372c4.273 7.355 7.9 13.329 8.062 13.275.21-.07.268-3.827.205-13.372l-.089-13.275h6.933v36.524l-5.05-.072-5.05-.072-7.62-13.23c-4.19-7.275-7.776-13.228-7.968-13.228-.285 0-.334 2.429-.271 13.295l.078 13.295h-6.662zm76.994 3.493c0-11.13-.078-14.842-.317-15.082-.224-.223-1.717-.317-5.028-.317h-4.71v-6.35h27.782v6.35h-4.71c-3.31 0-4.803.094-5.027.317-.239.24-.317 3.951-.317 15.082v14.763h-7.673zm23.548-3.493v-18.256h7.673v36.512h-7.673zm23.283 3.493c0-11.13-.078-14.842-.317-15.082-.223-.223-1.717-.317-5.027-.317h-4.71v-6.35h27.781v6.35h-4.71c-3.31 0-4.803.094-5.026.317-.24.24-.318 3.951-.318 15.082v14.763h-7.673zm69.057 0c0-11.13-.079-14.842-.318-15.082-.223-.223-1.717-.317-5.027-.317h-4.71v-6.35h27.78v6.35h-4.709c-3.31 0-4.804.094-5.027.317-.24.24-.318 3.951-.318 15.082v14.763h-7.672z" transform="translate(43.9 10.607) scale(.23076)"/></g></svg>