<?xml version="1.0" encoding="UTF-8" standalone="no"?>
<!-- Created with Inkscape (http://www.inkscape.org/) -->

<svg
   xmlns:dc="http://purl.org/dc/elements/1.1/"
   xmlns:cc="http://creativecommons.org/ns#"
   xmlns:rdf="http://www.w3.org/1999/02/22-rdf-syntax-ns#"
   xmlns:svg="http://www.w3.org/2000/svg"
   xmlns="http://www.w3.org/2000/svg"
   xmlns:sodipodi="http://sodipodi.sourceforge.net/DTD/sodipodi-0.dtd"
   xmlns:inkscape="http://www.inkscape.org/namespaces/inkscape"
   width="750"
   height="800"
   id="svg4247"
   version="1.1"
   inkscape:version="0.92.3 (2405546, 2018-03-11)"
   sodipodi:docname="logo.svg">
  <sodipodi:namedview
     id="base"
     pagecolor="#ffffff"
     bordercolor="#666666"
     borderopacity="1.0"
     inkscape:pageopacity="0.0"
     inkscape:pageshadow="2"
     inkscape:zoom="0.71834951"
     inkscape:cx="-501.54501"
     inkscape:cy="428.76174"
     inkscape:document-units="px"
     inkscape:current-layer="layer1"
     showgrid="false"
     inkscape:window-width="3840"
     inkscape:window-height="2049"
     inkscape:window-x="0"
     inkscape:window-y="55"
     inkscape:window-maximized="1" />
  <defs
     id="defs4249" />
  <metadata
     id="metadata4252">
    <rdf:RDF>
      <cc:Work
         rdf:about="">
        <dc:format>image/svg+xml</dc:format>
        <dc:type
           rdf:resource="http://purl.org/dc/dcmitype/StillImage" />
        <dc:title />
      </cc:Work>
    </rdf:RDF>
  </metadata>
  <g
     inkscape:label="Camada 1"
     inkscape:groupmode="layer"
     id="layer1"
     transform="translate(0,-252.36217)">
    <g
       id="g4146"
       transform="translate(-5.211787,97.224767)">
      <path
         sodipodi:nodetypes="csscccssssssssssssccssccsssccsccssssscc"
         style="fill:#cb2026;fill-opacity:1"
         d="m 365.38154,504.83418 c -12.44832,-1.24951 -23.50355,-4.24481 -33.50735,-9.07853 -13.46436,-6.50578 -22.38945,-14.72332 -27.41315,-25.24002 -2.63692,-5.52017 -3.12746,-7.78181 -3.15787,-14.56039 -0.0198,-4.57366 0.10295,-6.23746 0.60867,-8.21274 0.62088,-2.42452 0.62088,-2.49034 0,-3.10114 -1.04006,-1.02301 -30.40602,-17.87037 -31.14922,-17.87037 -0.3763,0 -11.60366,6.30075 -24.94945,14.0017 -13.34578,7.70095 -24.45095,14.00171 -24.67818,14.00171 -0.68687,0 -18.20672,-10.2199 -18.20672,-10.62056 0,-0.56508 6.03873,-9.51053 9.78028,-14.48789 9.93734,-13.21973 22.12876,-26.01681 34.32475,-36.03 24.32061,-19.96782 52.35294,-34.17617 82.06332,-41.59433 18.77388,-4.6875 35.33298,-6.52319 55.34745,-6.1356 20.12642,0.3897 36.34764,2.87779 55.61016,8.52953 38.87449,11.40609 75.6662,35.85475 101.50255,67.45008 6.2432,7.63485 15.96842,21.23725 15.96842,22.33468 0,0.18498 -2.31536,1.67369 -5.1452,3.30798 -2.82988,1.63428 -6.80955,3.94479 -8.84376,5.13439 -2.23996,1.30998 -3.9697,2.11014 -4.38607,2.02898 -0.60866,-0.11874 -18.02949,-10.12563 -90.77068,-52.14083 -10.76275,-6.21655 -29.43727,-17.0004 -41.499,-23.96413 -12.06168,-6.96374 -22.95842,-13.25767 -24.21496,-13.98651 -1.25652,-0.72882 -2.50847,-1.23926 -2.7821,-1.13422 -0.27374,0.10492 -10.86022,6.17169 -23.52575,13.48154 -12.66549,7.30986 -24.81214,14.31154 -26.99252,15.55923 -2.1804,1.2477 -3.96434,2.4651 -3.96434,2.70535 0,0.34199 16.27676,9.85329 22.67518,13.25014 l 1.25089,0.66412 3.80994,-0.78994 c 8.157,-1.69121 11.2396,-1.9582 22.53511,-1.9519 9.15222,0.004 11.26073,0.10532 15.18677,0.72151 12.5778,1.97426 22.95531,5.33632 32.1014,10.40003 6.56298,3.63359 10.46917,6.62562 15.46637,11.84668 18.61714,19.45118 14.16138,45.16844 -10.66034,61.52823 -8.11132,5.34608 -18.37567,9.57019 -28.6456,11.78853 -8.43578,1.82216 -11.29488,2.10757 -22.09906,2.20622 -5.6597,0.0517 -10.89768,0.0315 -11.63994,-0.0414 z"
         id="path5483-1-2"
         inkscape:connector-curvature="0" />
      <path
         sodipodi:nodetypes="cssscsscscccccssccccsccssssscccssccsccc"
         style="fill:#0e9a48;fill-opacity:1"
         d="m 368.58672,763.93664 c -35.57248,-2.4924 -64.85923,-11.3262 -94.13179,-28.3931 -18.21598,-10.6206 -33.68706,-23.2411 -49.86224,-40.6748 -10.91322,-11.7624 -23.52023,-30.10323 -30.75701,-44.74557 -1.1464,-2.31959 -2.36577,-4.74879 -2.70969,-5.39824 -1.37861,-2.60344 -5.46695,-12.37334 -7.35794,-17.58318 -7.54971,-20.80037 -11.3524,-40.01539 -12.57843,-63.55909 -0.46394,-8.90852 -0.004,-22.58658 1.03532,-30.87118 0.17474,-1.39175 0.48552,-3.89689 0.69052,-5.56694 1.62359,-13.22741 6.11663,-31.07897 11.40789,-45.32519 6.67402,-14.44263 6.2425,-27.793 20.21553,-19.68579 l 8.67975,5.04719 0.16883,92.22652 0.16882,92.22653 2.69911,1.54869 c 10.68347,6.12997 30.26824,17.43361 31.37725,18.10983 2.4072,1.4678 14.8221,8.58702 15.62846,8.96199 0.61106,0.28399 0.85104,0.25717 1.09137,-0.12268 0.17592,-0.27848 0.31043,-8.48438 0.31319,-19.15381 l 0.004,-18.6669 -2.83764,-3.77799 C 250.6428,623.6358 243.66778,607.104 241.17021,589.56159 c -2.34012,-20.96418 2.97184,-43.53112 21.28927,-52.33021 8.97003,-4.24912 19.24099,-4.46776 30.71949,-0.6539 19.25206,6.39669 38.12432,24.19093 49.57422,46.74241 10.87469,21.41856 13.90238,44.54336 8.13877,62.16225 -1.08211,3.30798 -3.88552,8.91613 -5.7974,11.5977 -3.07736,4.31613 -7.59982,8.20744 -12.51999,10.77276 l -2.62008,1.36608 v 24.77136 24.7712 l 4.89218,2.8372 c 2.69068,1.5604 6.63812,3.8579 8.77212,5.1055 3.13761,1.8344 21.86579,12.6242 27.91903,16.0848 l 1.43392,0.8198 v 10.0714 c 0,11.0071 0.0852,10.5564 -1.96759,10.422 -0.49515,-0.032 -1.58345,-0.1069 -2.41852,-0.1653 z"
         id="path5483-1-7"
         inkscape:connector-curvature="0" />
      <path
         sodipodi:nodetypes="cccsssscscccssssssccsssscssssscsssscc"
         style="fill:#35469d;fill-opacity:1"
         d="m 387.64568,764.10434 c -0.0962,-0.2513 -0.1349,-5.0801 -0.0856,-10.7309 l 0.0895,-10.2743 4.0487,-2.3424 c 2.22677,-1.2884 5.94651,-3.4359 8.26605,-4.7723 11.25758,-6.4862 125.01619,-72.16093 129.72649,-74.89334 2.96903,-1.72228 7.90337,-4.57554 10.96517,-6.34055 l 5.56694,-3.20917 0.086,-31.4774 c 0.0474,-17.31259 -0.0276,-31.59249 -0.16961,-31.73315 -0.23824,-0.23824 -25.90415,14.39133 -27.12589,15.46183 -0.30569,0.26783 -0.72802,1.17157 -0.93873,2.00846 -1.29013,5.12346 -7.20197,17.81089 -11.47933,24.63571 -7.64021,12.19042 -18.23208,23.30352 -28.91761,30.34045 -16.59884,10.93122 -34.23662,13.55339 -47.49477,7.06096 -18.94826,-9.27882 -26.34631,-34.52058 -18.72855,-63.90098 7.12316,-27.47295 26.55439,-52.96377 49.07132,-64.37434 4.95977,-2.51338 9.24086,-4.11486 14.33913,-5.36393 3.53956,-0.86721 4.41278,-0.94961 9.95301,-0.939 5.45449,0.0119 6.40651,0.10098 9.34765,0.88915 6.04272,1.61922 11.00979,4.40558 15.409,8.64389 1.17846,1.13536 2.29422,2.06431 2.47939,2.06431 0.1854,0 5.36796,-2.85958 11.51725,-6.35468 6.14921,-3.4951 13.7994,-7.83423 17.00039,-9.64254 l 5.81998,-3.28786 v -28.9645 c 0,-24.17594 0.077,-29.04149 0.46556,-29.43008 0.5788,-0.57881 17.57399,-10.37912 17.99888,-10.37912 0.35658,0 6.44544,12.37836 8.54667,17.37558 8.2706,19.66926 13.3717,40.11561 15.57241,62.41717 0.59382,6.01783 0.58325,30.81861 -0.0158,37.1129 -1.99359,20.94559 -6.70451,40.6065 -14.24795,59.4636 -2.87039,7.17539 -9.65292,21.03972 -13.49379,27.58297 -16.10367,27.43411 -38.84697,51.48066 -65.26574,69.00566 -29.2907,19.4301 -62.75715,31.0947 -97.67446,34.0441 -8.71912,0.7365 -10.44641,0.7859 -10.63141,0.3037 z"
         id="path5483-1-8"
         inkscape:connector-curvature="0" />
    </g>
    <g
       id="g4151"
       transform="translate(3.314634,0)" />
  </g>
</svg>
